<?xml version="1.0" encoding="UTF-8" standalone="no"?>
<!DOCTYPE svg PUBLIC "-//W3C//DTD SVG 1.1//EN"
 "http://www.w3.org/Graphics/SVG/1.1/DTD/svg11.dtd">
<!-- Generated by graphviz version 11.0.0 (20240428.1522)
 -->
<!-- Title: C:/Users/rbarr/Documents/GitHub/youtubeAudioRetriever/audioreader.h Pages: 1 -->
<svg width="516pt" height="108pt"
 viewBox="0.00 0.00 515.75 108.00" xmlns="http://www.w3.org/2000/svg" xmlns:xlink="http://www.w3.org/1999/xlink">
<g id="graph0" class="graph" transform="scale(1 1) rotate(0) translate(4 104)">
<title>C:/Users/rbarr/Documents/GitHub/youtubeAudioRetriever/audioreader.h</title>
<!-- Node1 -->
<g id="Node000001" class="node">
<title>Node1</title>
<g id="a_Node000001"><a xlink:title=" ">
<polygon fill="#999999" stroke="#666666" points="351.38,-100 202.62,-100 202.62,-56 351.38,-56 351.38,-100"/>
<text text-anchor="start" x="210.62" y="-86.5" font-family="Helvetica,sans-Serif" font-size="10.00">C:/Users/rbarr/Documents</text>
<text text-anchor="start" x="210.62" y="-74.5" font-family="Helvetica,sans-Serif" font-size="10.00">/GitHub/youtubeAudioRetriever</text>
<text text-anchor="middle" x="277" y="-62.5" font-family="Helvetica,sans-Serif" font-size="10.00">/audioreader.h</text>
</a>
</g>
</g>
<!-- Node2 -->
<g id="Node000002" class="node">
<title>Node2</title>
<g id="a_Node000002"><a xlink:title=" ">
<polygon fill="#e0e0e0" stroke="#999999" points="52,-20 0,-20 0,0 52,0 52,-20"/>
<text text-anchor="middle" x="26" y="-6.5" font-family="Helvetica,sans-Serif" font-size="10.00">QObject</text>
</a>
</g>
</g>
<!-- Node1&#45;&gt;Node2 -->
<g id="edge1_Node000001_Node000002" class="edge">
<title>Node1&#45;&gt;Node2</title>
<g id="a_edge1_Node000001_Node000002"><a xlink:title=" ">
<path fill="none" stroke="#63b8ff" d="M202.37,-57.38C156.6,-45.34 99.97,-30.45 63.42,-20.84"/>
<polygon fill="#63b8ff" stroke="#63b8ff" points="64.33,-17.46 53.77,-18.3 62.55,-24.23 64.33,-17.46"/>
</a>
</g>
</g>
<!-- Node3 -->
<g id="Node000003" class="node">
<title>Node3</title>
<g id="a_Node000003"><a xlink:title=" ">
<polygon fill="#e0e0e0" stroke="#999999" points="147.75,-20 70.25,-20 70.25,0 147.75,0 147.75,-20"/>
<text text-anchor="middle" x="109" y="-6.5" font-family="Helvetica,sans-Serif" font-size="10.00">QMediaPlayer</text>
</a>
</g>
</g>
<!-- Node1&#45;&gt;Node3 -->
<g id="edge2_Node000001_Node000003" class="edge">
<title>Node1&#45;&gt;Node3</title>
<g id="a_edge2_Node000001_Node000003"><a xlink:title=" ">
<path fill="none" stroke="#63b8ff" d="M222.46,-55.57C196.44,-45.35 166.1,-33.43 143.35,-24.49"/>
<polygon fill="#63b8ff" stroke="#63b8ff" points="144.84,-21.32 134.25,-20.92 142.28,-27.83 144.84,-21.32"/>
</a>
</g>
</g>
<!-- Node4 -->
<g id="Node000004" class="node">
<title>Node4</title>
<g id="a_Node000004"><a xlink:title=" ">
<polygon fill="#e0e0e0" stroke="#999999" points="220.12,-20 165.88,-20 165.88,0 220.12,0 220.12,-20"/>
<text text-anchor="middle" x="193" y="-6.5" font-family="Helvetica,sans-Serif" font-size="10.00">QFileInfo</text>
</a>
</g>
</g>
<!-- Node1&#45;&gt;Node4 -->
<g id="edge3_Node000001_Node000004" class="edge">
<title>Node1&#45;&gt;Node4</title>
<g id="a_edge3_Node000001_Node000004"><a xlink:title=" ">
<path fill="none" stroke="#63b8ff" d="M249.96,-55.75C238.24,-46.54 224.73,-35.93 213.81,-27.35"/>
<polygon fill="#63b8ff" stroke="#63b8ff" points="216.2,-24.78 206.18,-21.35 211.88,-30.28 216.2,-24.78"/>
</a>
</g>
</g>
<!-- Node5 -->
<g id="Node000005" class="node">
<title>Node5</title>
<g id="a_Node000005"><a xlink:title=" ">
<polygon fill="#e0e0e0" stroke="#999999" points="315.75,-20 238.25,-20 238.25,0 315.75,0 315.75,-20"/>
<text text-anchor="middle" x="277" y="-6.5" font-family="Helvetica,sans-Serif" font-size="10.00">QAudioOutput</text>
</a>
</g>
</g>
<!-- Node1&#45;&gt;Node5 -->
<g id="edge4_Node000001_Node000005" class="edge">
<title>Node1&#45;&gt;Node5</title>
<g id="a_edge4_Node000001_Node000005"><a xlink:title=" ">
<path fill="none" stroke="#63b8ff" d="M277,-55.75C277,-48.13 277,-39.53 277,-31.93"/>
<polygon fill="#63b8ff" stroke="#63b8ff" points="280.5,-31.93 277,-21.93 273.5,-31.93 280.5,-31.93"/>
</a>
</g>
</g>
<!-- Node6 -->
<g id="Node000006" class="node">
<title>Node6</title>
<g id="a_Node000006"><a xlink:title=" ">
<polygon fill="#e0e0e0" stroke="#999999" points="369.75,-20 334.25,-20 334.25,0 369.75,0 369.75,-20"/>
<text text-anchor="middle" x="352" y="-6.5" font-family="Helvetica,sans-Serif" font-size="10.00">QUrl</text>
</a>
</g>
</g>
<!-- Node1&#45;&gt;Node6 -->
<g id="edge5_Node000001_Node000006" class="edge">
<title>Node1&#45;&gt;Node6</title>
<g id="a_edge5_Node000001_Node000006"><a xlink:title=" ">
<path fill="none" stroke="#63b8ff" d="M301.14,-55.75C311.4,-46.73 323.19,-36.36 332.83,-27.87"/>
<polygon fill="#63b8ff" stroke="#63b8ff" points="334.97,-30.65 340.16,-21.42 330.34,-25.4 334.97,-30.65"/>
</a>
</g>
</g>
<!-- Node7 -->
<g id="Node000007" class="node">
<title>Node7</title>
<g id="a_Node000007"><a xlink:title=" ">
<polygon fill="#e0e0e0" stroke="#999999" points="435.75,-20 388.25,-20 388.25,0 435.75,0 435.75,-20"/>
<text text-anchor="middle" x="412" y="-6.5" font-family="Helvetica,sans-Serif" font-size="10.00">QTimer</text>
</a>
</g>
</g>
<!-- Node1&#45;&gt;Node7 -->
<g id="edge6_Node000001_Node000007" class="edge">
<title>Node1&#45;&gt;Node7</title>
<g id="a_edge6_Node000001_Node000007"><a xlink:title=" ">
<path fill="none" stroke="#63b8ff" d="M320.83,-55.57C341.07,-45.68 364.57,-34.19 382.64,-25.36"/>
<polygon fill="#63b8ff" stroke="#63b8ff" points="384.04,-28.57 391.48,-21.03 380.96,-22.28 384.04,-28.57"/>
</a>
</g>
</g>
<!-- Node8 -->
<g id="Node000008" class="node">
<title>Node8</title>
<g id="a_Node000008"><a xlink:title=" ">
<polygon fill="#e0e0e0" stroke="#999999" points="507.75,-20 454.25,-20 454.25,0 507.75,0 507.75,-20"/>
<text text-anchor="middle" x="481" y="-6.5" font-family="Helvetica,sans-Serif" font-size="10.00">iostream</text>
</a>
</g>
</g>
<!-- Node1&#45;&gt;Node8 -->
<g id="edge7_Node000001_Node000008" class="edge">
<title>Node1&#45;&gt;Node8</title>
<g id="a_edge7_Node000001_Node000008"><a xlink:title=" ">
<path fill="none" stroke="#63b8ff" d="M343.23,-55.57C376.26,-44.89 415.02,-32.35 443,-23.3"/>
<polygon fill="#63b8ff" stroke="#63b8ff" points="444.03,-26.64 452.46,-20.23 441.87,-19.98 444.03,-26.64"/>
</a>
</g>
</g>
</g>
</svg>
