<?xml version="1.0" encoding="UTF-8" standalone="no"?>
<!DOCTYPE svg PUBLIC "-//W3C//DTD SVG 1.1//EN"
 "http://www.w3.org/Graphics/SVG/1.1/DTD/svg11.dtd">
<!-- Generated by graphviz version 11.0.0 (20240428.1522)
 -->
<!-- Title: C:/Users/rbarr/Documents/GitHub/youtubeAudioRetriever/audioreader.cpp Pages: 1 -->
<svg width="516pt" height="164pt"
 viewBox="0.00 0.00 515.75 164.00" xmlns="http://www.w3.org/2000/svg" xmlns:xlink="http://www.w3.org/1999/xlink">
<g id="graph0" class="graph" transform="scale(1 1) rotate(0) translate(4 160)">
<title>C:/Users/rbarr/Documents/GitHub/youtubeAudioRetriever/audioreader.cpp</title>
<!-- Node1 -->
<g id="Node000001" class="node">
<title>Node1</title>
<g id="a_Node000001"><a xlink:title=" ">
<polygon fill="#999999" stroke="#666666" points="351.38,-156 202.62,-156 202.62,-112 351.38,-112 351.38,-156"/>
<text text-anchor="start" x="210.62" y="-142.5" font-family="Helvetica,sans-Serif" font-size="10.00">C:/Users/rbarr/Documents</text>
<text text-anchor="start" x="210.62" y="-130.5" font-family="Helvetica,sans-Serif" font-size="10.00">/GitHub/youtubeAudioRetriever</text>
<text text-anchor="middle" x="277" y="-118.5" font-family="Helvetica,sans-Serif" font-size="10.00">/audioreader.cpp</text>
</a>
</g>
</g>
<!-- Node2 -->
<g id="Node000002" class="node">
<title>Node2</title>
<g id="a_Node000002"><a xlink:href="audioreader_8h.html" target="_top" xlink:title=" ">
<polygon fill="white" stroke="#666666" points="314.25,-76 239.75,-76 239.75,-56 314.25,-56 314.25,-76"/>
<text text-anchor="middle" x="277" y="-62.5" font-family="Helvetica,sans-Serif" font-size="10.00">audioreader.h</text>
</a>
</g>
</g>
<!-- Node1&#45;&gt;Node2 -->
<g id="edge1_Node000001_Node000002" class="edge">
<title>Node1&#45;&gt;Node2</title>
<g id="a_edge1_Node000001_Node000002"><a xlink:title=" ">
<path fill="none" stroke="#63b8ff" d="M277,-111.75C277,-104.13 277,-95.53 277,-87.93"/>
<polygon fill="#63b8ff" stroke="#63b8ff" points="280.5,-87.93 277,-77.93 273.5,-87.93 280.5,-87.93"/>
</a>
</g>
</g>
<!-- Node3 -->
<g id="Node000003" class="node">
<title>Node3</title>
<g id="a_Node000003"><a xlink:title=" ">
<polygon fill="#e0e0e0" stroke="#999999" points="52,-20 0,-20 0,0 52,0 52,-20"/>
<text text-anchor="middle" x="26" y="-6.5" font-family="Helvetica,sans-Serif" font-size="10.00">QObject</text>
</a>
</g>
</g>
<!-- Node2&#45;&gt;Node3 -->
<g id="edge2_Node000002_Node000003" class="edge">
<title>Node2&#45;&gt;Node3</title>
<g id="a_edge2_Node000002_Node000003"><a xlink:title=" ">
<path fill="none" stroke="#63b8ff" d="M239.42,-57.72C198.43,-49.66 130.64,-35.97 63.16,-20.42"/>
<polygon fill="#63b8ff" stroke="#63b8ff" points="64.35,-17.11 53.82,-18.25 62.77,-23.92 64.35,-17.11"/>
</a>
</g>
</g>
<!-- Node4 -->
<g id="Node000004" class="node">
<title>Node4</title>
<g id="a_Node000004"><a xlink:title=" ">
<polygon fill="#e0e0e0" stroke="#999999" points="147.75,-20 70.25,-20 70.25,0 147.75,0 147.75,-20"/>
<text text-anchor="middle" x="109" y="-6.5" font-family="Helvetica,sans-Serif" font-size="10.00">QMediaPlayer</text>
</a>
</g>
</g>
<!-- Node2&#45;&gt;Node4 -->
<g id="edge3_Node000002_Node000004" class="edge">
<title>Node2&#45;&gt;Node4</title>
<g id="a_edge3_Node000002_Node000004"><a xlink:title=" ">
<path fill="none" stroke="#63b8ff" d="M247.74,-55.59C220.44,-46.82 179.49,-33.66 149.15,-23.9"/>
<polygon fill="#63b8ff" stroke="#63b8ff" points="150.52,-20.67 139.93,-20.94 148.38,-27.33 150.52,-20.67"/>
</a>
</g>
</g>
<!-- Node5 -->
<g id="Node000005" class="node">
<title>Node5</title>
<g id="a_Node000005"><a xlink:title=" ">
<polygon fill="#e0e0e0" stroke="#999999" points="220.12,-20 165.88,-20 165.88,0 220.12,0 220.12,-20"/>
<text text-anchor="middle" x="193" y="-6.5" font-family="Helvetica,sans-Serif" font-size="10.00">QFileInfo</text>
</a>
</g>
</g>
<!-- Node2&#45;&gt;Node5 -->
<g id="edge4_Node000002_Node000005" class="edge">
<title>Node2&#45;&gt;Node5</title>
<g id="a_edge4_Node000002_Node000005"><a xlink:title=" ">
<path fill="none" stroke="#63b8ff" d="M262.37,-55.59C249.92,-47.59 231.78,-35.93 217.18,-26.54"/>
<polygon fill="#63b8ff" stroke="#63b8ff" points="219.32,-23.76 209.02,-21.3 215.54,-29.65 219.32,-23.76"/>
</a>
</g>
</g>
<!-- Node6 -->
<g id="Node000006" class="node">
<title>Node6</title>
<g id="a_Node000006"><a xlink:title=" ">
<polygon fill="#e0e0e0" stroke="#999999" points="315.75,-20 238.25,-20 238.25,0 315.75,0 315.75,-20"/>
<text text-anchor="middle" x="277" y="-6.5" font-family="Helvetica,sans-Serif" font-size="10.00">QAudioOutput</text>
</a>
</g>
</g>
<!-- Node2&#45;&gt;Node6 -->
<g id="edge5_Node000002_Node000006" class="edge">
<title>Node2&#45;&gt;Node6</title>
<g id="a_edge5_Node000002_Node000006"><a xlink:title=" ">
<path fill="none" stroke="#63b8ff" d="M277,-55.59C277,-49.01 277,-39.96 277,-31.73"/>
<polygon fill="#63b8ff" stroke="#63b8ff" points="280.5,-31.81 277,-21.81 273.5,-31.81 280.5,-31.81"/>
</a>
</g>
</g>
<!-- Node7 -->
<g id="Node000007" class="node">
<title>Node7</title>
<g id="a_Node000007"><a xlink:title=" ">
<polygon fill="#e0e0e0" stroke="#999999" points="369.75,-20 334.25,-20 334.25,0 369.75,0 369.75,-20"/>
<text text-anchor="middle" x="352" y="-6.5" font-family="Helvetica,sans-Serif" font-size="10.00">QUrl</text>
</a>
</g>
</g>
<!-- Node2&#45;&gt;Node7 -->
<g id="edge6_Node000002_Node000007" class="edge">
<title>Node2&#45;&gt;Node7</title>
<g id="a_edge6_Node000002_Node000007"><a xlink:title=" ">
<path fill="none" stroke="#63b8ff" d="M290.06,-55.59C300.97,-47.74 316.75,-36.38 329.66,-27.09"/>
<polygon fill="#63b8ff" stroke="#63b8ff" points="331.54,-30.05 337.61,-21.36 327.45,-24.37 331.54,-30.05"/>
</a>
</g>
</g>
<!-- Node8 -->
<g id="Node000008" class="node">
<title>Node8</title>
<g id="a_Node000008"><a xlink:title=" ">
<polygon fill="#e0e0e0" stroke="#999999" points="435.75,-20 388.25,-20 388.25,0 435.75,0 435.75,-20"/>
<text text-anchor="middle" x="412" y="-6.5" font-family="Helvetica,sans-Serif" font-size="10.00">QTimer</text>
</a>
</g>
</g>
<!-- Node2&#45;&gt;Node8 -->
<g id="edge7_Node000002_Node000008" class="edge">
<title>Node2&#45;&gt;Node8</title>
<g id="a_edge7_Node000002_Node000008"><a xlink:title=" ">
<path fill="none" stroke="#63b8ff" d="M300.52,-55.59C321.87,-47.05 353.63,-34.35 377.8,-24.68"/>
<polygon fill="#63b8ff" stroke="#63b8ff" points="378.91,-28.01 386.9,-21.04 376.31,-21.51 378.91,-28.01"/>
</a>
</g>
</g>
<!-- Node9 -->
<g id="Node000009" class="node">
<title>Node9</title>
<g id="a_Node000009"><a xlink:title=" ">
<polygon fill="#e0e0e0" stroke="#999999" points="507.75,-20 454.25,-20 454.25,0 507.75,0 507.75,-20"/>
<text text-anchor="middle" x="481" y="-6.5" font-family="Helvetica,sans-Serif" font-size="10.00">iostream</text>
</a>
</g>
</g>
<!-- Node2&#45;&gt;Node9 -->
<g id="edge8_Node000002_Node000009" class="edge">
<title>Node2&#45;&gt;Node9</title>
<g id="a_edge8_Node000002_Node000009"><a xlink:title=" ">
<path fill="none" stroke="#63b8ff" d="M312.53,-55.59C349.05,-45.93 405.71,-30.93 443.07,-21.04"/>
<polygon fill="#63b8ff" stroke="#63b8ff" points="443.77,-24.47 452.55,-18.53 441.98,-17.71 443.77,-24.47"/>
</a>
</g>
</g>
</g>
</svg>
