<?xml version="1.0" encoding="UTF-8" standalone="no"?>
<!DOCTYPE svg PUBLIC "-//W3C//DTD SVG 1.1//EN"
 "http://www.w3.org/Graphics/SVG/1.1/DTD/svg11.dtd">
<!-- Generated by graphviz version 11.0.0 (20240428.1522)
 -->
<!-- Title: Graphical Class Hierarchy Pages: 1 -->
<svg width="179pt" height="66pt"
 viewBox="0.00 0.00 178.75 66.00" xmlns="http://www.w3.org/2000/svg" xmlns:xlink="http://www.w3.org/1999/xlink">
<g id="graph0" class="graph" transform="scale(1 1) rotate(0) translate(4 62)">
<title>Graphical Class Hierarchy</title>
<!-- Node0 -->
<g id="Node000000" class="node">
<title>Node0</title>
<g id="a_Node000000"><a xlink:title=" ">
<polygon fill="#e0e0e0" stroke="#999999" points="50.5,-39 0,-39 0,-19 50.5,-19 50.5,-39"/>
<text text-anchor="middle" x="25.25" y="-25.5" font-family="Helvetica,sans-Serif" font-size="10.00">QDialog</text>
</a>
</g>
</g>
<!-- Node1 -->
<g id="Node000001" class="node">
<title>Node1</title>
<g id="a_Node000001"><a xlink:href="classapi_settings.html" target="_top" xlink:title=" ">
<polygon fill="white" stroke="#666666" points="161,-58 96.25,-58 96.25,-38 161,-38 161,-58"/>
<text text-anchor="middle" x="128.62" y="-44.5" font-family="Helvetica,sans-Serif" font-size="10.00">apiSettings</text>
</a>
</g>
</g>
<!-- Node0&#45;&gt;Node1 -->
<g id="edge1_Node000000_Node000001" class="edge">
<title>Node0&#45;&gt;Node1</title>
<g id="a_edge1_Node000000_Node000001"><a xlink:title=" ">
<path fill="none" stroke="#63b8ff" d="M61.89,-35.68C73.01,-37.76 85.19,-40.05 96.02,-42.08"/>
<polygon fill="#63b8ff" stroke="#63b8ff" points="62.75,-32.28 52.28,-33.88 61.46,-39.16 62.75,-32.28"/>
</a>
</g>
</g>
<!-- Node2 -->
<g id="Node000002" class="node">
<title>Node2</title>
<g id="a_Node000002"><a xlink:href="classressource_paths.html" target="_top" xlink:title=" ">
<polygon fill="white" stroke="#666666" points="170.75,-20 86.5,-20 86.5,0 170.75,0 170.75,-20"/>
<text text-anchor="middle" x="128.62" y="-6.5" font-family="Helvetica,sans-Serif" font-size="10.00">ressourcePaths</text>
</a>
</g>
</g>
<!-- Node0&#45;&gt;Node2 -->
<g id="edge2_Node000000_Node000002" class="edge">
<title>Node0&#45;&gt;Node2</title>
<g id="a_edge2_Node000000_Node000002"><a xlink:title=" ">
<path fill="none" stroke="#63b8ff" d="M61.87,-22.32C69.77,-20.84 78.2,-19.26 86.31,-17.74"/>
<polygon fill="#63b8ff" stroke="#63b8ff" points="61.46,-18.84 52.28,-24.12 62.75,-25.72 61.46,-18.84"/>
</a>
</g>
</g>
</g>
</svg>
