<?xml version="1.0" encoding="UTF-8" standalone="no"?>
<!DOCTYPE svg PUBLIC "-//W3C//DTD SVG 1.1//EN"
 "http://www.w3.org/Graphics/SVG/1.1/DTD/svg11.dtd">
<!-- Generated by graphviz version 11.0.0 (20240428.1522)
 -->
<!-- Title: Graphical Class Hierarchy Pages: 1 -->
<svg width="197pt" height="142pt"
 viewBox="0.00 0.00 196.75 142.00" xmlns="http://www.w3.org/2000/svg" xmlns:xlink="http://www.w3.org/1999/xlink">
<g id="graph0" class="graph" transform="scale(1 1) rotate(0) translate(4 138)">
<title>Graphical Class Hierarchy</title>
<!-- Node0 -->
<g id="Node000000" class="node">
<title>Node0</title>
<g id="a_Node000000"><a xlink:title=" ">
<polygon fill="#e0e0e0" stroke="#999999" points="52,-77 0,-77 0,-57 52,-57 52,-77"/>
<text text-anchor="middle" x="26" y="-63.5" font-family="Helvetica,sans-Serif" font-size="10.00">QObject</text>
</a>
</g>
</g>
<!-- Node1 -->
<g id="Node000001" class="node">
<title>Node1</title>
<g id="a_Node000001"><a xlink:href="classaudio_reader.html" target="_top" xlink:title=" ">
<polygon fill="white" stroke="#666666" points="173.38,-134 103.38,-134 103.38,-114 173.38,-114 173.38,-134"/>
<text text-anchor="middle" x="138.38" y="-120.5" font-family="Helvetica,sans-Serif" font-size="10.00">audioReader</text>
</a>
</g>
</g>
<!-- Node0&#45;&gt;Node1 -->
<g id="edge4_Node000000_Node000001" class="edge">
<title>Node0&#45;&gt;Node1</title>
<g id="a_edge4_Node000000_Node000001"><a xlink:title=" ">
<path fill="none" stroke="#63b8ff" d="M50.93,-83.38C61.94,-90.53 75.35,-98.7 88,-105 94.17,-108.07 100.96,-110.97 107.48,-113.54"/>
<polygon fill="#63b8ff" stroke="#63b8ff" points="53.12,-80.63 42.85,-78.02 49.25,-86.46 53.12,-80.63"/>
</a>
</g>
</g>
<!-- Node2 -->
<g id="Node000002" class="node">
<title>Node2</title>
<g id="a_Node000002"><a xlink:href="classparam_file.html" target="_top" xlink:title="The paramFile class provides a simple interface for reading and writing parameters to a JSON configur...">
<polygon fill="white" stroke="#666666" points="167.75,-96 109,-96 109,-76 167.75,-76 167.75,-96"/>
<text text-anchor="middle" x="138.38" y="-82.5" font-family="Helvetica,sans-Serif" font-size="10.00">paramFile</text>
</a>
</g>
</g>
<!-- Node0&#45;&gt;Node2 -->
<g id="edge5_Node000000_Node000002" class="edge">
<title>Node0&#45;&gt;Node2</title>
<g id="a_edge5_Node000000_Node000002"><a xlink:title=" ">
<path fill="none" stroke="#63b8ff" d="M63.57,-73.29C78.24,-75.82 94.89,-78.69 108.67,-81.06"/>
<polygon fill="#63b8ff" stroke="#63b8ff" points="64.26,-69.86 53.81,-71.62 63.08,-76.76 64.26,-69.86"/>
</a>
</g>
</g>
<!-- Node3 -->
<g id="Node000003" class="node">
<title>Node3</title>
<g id="a_Node000003"><a xlink:href="classyoutube_api.html" target="_top" xlink:title="The youtubeApi class is responsible for interacting with the YouTube API.">
<polygon fill="white" stroke="#666666" points="170.75,-58 106,-58 106,-38 170.75,-38 170.75,-58"/>
<text text-anchor="middle" x="138.38" y="-44.5" font-family="Helvetica,sans-Serif" font-size="10.00">youtubeApi</text>
</a>
</g>
</g>
<!-- Node0&#45;&gt;Node3 -->
<g id="edge6_Node000000_Node000003" class="edge">
<title>Node0&#45;&gt;Node3</title>
<g id="a_edge6_Node000000_Node000003"><a xlink:title=" ">
<path fill="none" stroke="#63b8ff" d="M63.36,-60.74C77.09,-58.38 92.6,-55.71 105.85,-53.43"/>
<polygon fill="#63b8ff" stroke="#63b8ff" points="63.08,-57.24 53.81,-62.38 64.26,-64.14 63.08,-57.24"/>
</a>
</g>
</g>
<!-- Node4 -->
<g id="Node000004" class="node">
<title>Node4</title>
<g id="a_Node000004"><a xlink:href="classyoutube_downloader.html" target="_top" xlink:title="The youtubeDownloader class is used to download and extract audio from YouTube videos using the yt&#45;dl...">
<polygon fill="white" stroke="#666666" points="188.75,-20 88,-20 88,0 188.75,0 188.75,-20"/>
<text text-anchor="middle" x="138.38" y="-6.5" font-family="Helvetica,sans-Serif" font-size="10.00">youtubeDownloader</text>
</a>
</g>
</g>
<!-- Node0&#45;&gt;Node4 -->
<g id="edge7_Node000000_Node000004" class="edge">
<title>Node0&#45;&gt;Node4</title>
<g id="a_edge7_Node000000_Node000004"><a xlink:title=" ">
<path fill="none" stroke="#63b8ff" d="M50.93,-50.62C61.94,-43.47 75.35,-35.3 88,-29 94.17,-25.93 100.96,-23.03 107.48,-20.46"/>
<polygon fill="#63b8ff" stroke="#63b8ff" points="49.25,-47.54 42.85,-55.98 53.12,-53.37 49.25,-47.54"/>
</a>
</g>
</g>
</g>
</svg>
