<?xml version="1.0" encoding="UTF-8" standalone="no"?>
<!DOCTYPE svg PUBLIC "-//W3C//DTD SVG 1.1//EN"
 "http://www.w3.org/Graphics/SVG/1.1/DTD/svg11.dtd">
<!-- Generated by graphviz version 11.0.0 (20240428.1522)
 -->
<!-- Title: C:/Users/rbarr/Documents/GitHub/youtubeAudioRetriever/loghandler.cpp Pages: 1 -->
<svg width="362pt" height="164pt"
 viewBox="0.00 0.00 362.38 164.00" xmlns="http://www.w3.org/2000/svg" xmlns:xlink="http://www.w3.org/1999/xlink">
<g id="graph0" class="graph" transform="scale(1 1) rotate(0) translate(4 160)">
<title>C:/Users/rbarr/Documents/GitHub/youtubeAudioRetriever/loghandler.cpp</title>
<!-- Node1 -->
<g id="Node000001" class="node">
<title>Node1</title>
<g id="a_Node000001"><a xlink:title=" ">
<polygon fill="#999999" stroke="#666666" points="336,-156 187.25,-156 187.25,-112 336,-112 336,-156"/>
<text text-anchor="start" x="195.25" y="-142.5" font-family="Helvetica,sans-Serif" font-size="10.00">C:/Users/rbarr/Documents</text>
<text text-anchor="start" x="195.25" y="-130.5" font-family="Helvetica,sans-Serif" font-size="10.00">/GitHub/youtubeAudioRetriever</text>
<text text-anchor="middle" x="261.62" y="-118.5" font-family="Helvetica,sans-Serif" font-size="10.00">/loghandler.cpp</text>
</a>
</g>
</g>
<!-- Node2 -->
<g id="Node000002" class="node">
<title>Node2</title>
<g id="a_Node000002"><a xlink:href="loghandler_8h.html" target="_top" xlink:title=" ">
<polygon fill="white" stroke="#666666" points="216.62,-76 146.62,-76 146.62,-56 216.62,-56 216.62,-76"/>
<text text-anchor="middle" x="181.62" y="-62.5" font-family="Helvetica,sans-Serif" font-size="10.00">logHandler.h</text>
</a>
</g>
</g>
<!-- Node1&#45;&gt;Node2 -->
<g id="edge1_Node000001_Node000002" class="edge">
<title>Node1&#45;&gt;Node2</title>
<g id="a_edge1_Node000001_Node000002"><a xlink:title=" ">
<path fill="none" stroke="#63b8ff" d="M235.87,-111.75C224.82,-102.64 212.1,-92.14 201.76,-83.61"/>
<polygon fill="#63b8ff" stroke="#63b8ff" points="204.15,-81.05 194.21,-77.38 199.7,-86.45 204.15,-81.05"/>
</a>
</g>
</g>
<!-- Node8 -->
<g id="Node000008" class="node">
<title>Node8</title>
<g id="a_Node000008"><a xlink:title=" ">
<polygon fill="#e0e0e0" stroke="#999999" points="288.75,-76 234.5,-76 234.5,-56 288.75,-56 288.75,-76"/>
<text text-anchor="middle" x="261.62" y="-62.5" font-family="Helvetica,sans-Serif" font-size="10.00">QFileInfo</text>
</a>
</g>
</g>
<!-- Node1&#45;&gt;Node8 -->
<g id="edge7_Node000001_Node000008" class="edge">
<title>Node1&#45;&gt;Node8</title>
<g id="a_edge7_Node000001_Node000008"><a xlink:title=" ">
<path fill="none" stroke="#63b8ff" d="M261.62,-111.75C261.62,-104.13 261.62,-95.53 261.62,-87.93"/>
<polygon fill="#63b8ff" stroke="#63b8ff" points="265.13,-87.93 261.63,-77.93 258.13,-87.93 265.13,-87.93"/>
</a>
</g>
</g>
<!-- Node9 -->
<g id="Node000009" class="node">
<title>Node9</title>
<g id="a_Node000009"><a xlink:title=" ">
<polygon fill="#e0e0e0" stroke="#999999" points="342.38,-76 306.88,-76 306.88,-56 342.38,-56 342.38,-76"/>
<text text-anchor="middle" x="324.62" y="-62.5" font-family="Helvetica,sans-Serif" font-size="10.00">QDir</text>
</a>
</g>
</g>
<!-- Node1&#45;&gt;Node9 -->
<g id="edge8_Node000001_Node000009" class="edge">
<title>Node1&#45;&gt;Node9</title>
<g id="a_edge8_Node000001_Node000009"><a xlink:title=" ">
<path fill="none" stroke="#63b8ff" d="M281.91,-111.75C290.25,-103.01 299.81,-93 307.76,-84.66"/>
<polygon fill="#63b8ff" stroke="#63b8ff" points="310.22,-87.16 314.59,-77.51 305.15,-82.33 310.22,-87.16"/>
</a>
</g>
</g>
<!-- Node3 -->
<g id="Node000003" class="node">
<title>Node3</title>
<g id="a_Node000003"><a xlink:title=" ">
<polygon fill="#e0e0e0" stroke="#999999" points="39.25,-20 0,-20 0,0 39.25,0 39.25,-20"/>
<text text-anchor="middle" x="19.62" y="-6.5" font-family="Helvetica,sans-Serif" font-size="10.00">QFile</text>
</a>
</g>
</g>
<!-- Node2&#45;&gt;Node3 -->
<g id="edge2_Node000002_Node000003" class="edge">
<title>Node2&#45;&gt;Node3</title>
<g id="a_edge2_Node000002_Node000003"><a xlink:title=" ">
<path fill="none" stroke="#63b8ff" d="M153.41,-55.59C124.47,-45.95 79.61,-31 49.93,-21.1"/>
<polygon fill="#63b8ff" stroke="#63b8ff" points="51.4,-17.9 40.8,-18.06 49.18,-24.54 51.4,-17.9"/>
</a>
</g>
</g>
<!-- Node4 -->
<g id="Node000004" class="node">
<title>Node4</title>
<g id="a_Node000004"><a xlink:title=" ">
<polygon fill="#e0e0e0" stroke="#999999" points="131.5,-20 57.75,-20 57.75,0 131.5,0 131.5,-20"/>
<text text-anchor="middle" x="94.62" y="-6.5" font-family="Helvetica,sans-Serif" font-size="10.00">QTextStream</text>
</a>
</g>
</g>
<!-- Node2&#45;&gt;Node4 -->
<g id="edge3_Node000002_Node000004" class="edge">
<title>Node2&#45;&gt;Node4</title>
<g id="a_edge3_Node000002_Node000004"><a xlink:title=" ">
<path fill="none" stroke="#63b8ff" d="M166.47,-55.59C153.58,-47.59 134.79,-35.93 119.67,-26.54"/>
<polygon fill="#63b8ff" stroke="#63b8ff" points="121.53,-23.58 111.18,-21.28 117.83,-29.53 121.53,-23.58"/>
</a>
</g>
</g>
<!-- Node5 -->
<g id="Node000005" class="node">
<title>Node5</title>
<g id="a_Node000005"><a xlink:title=" ">
<polygon fill="#e0e0e0" stroke="#999999" points="214,-20 149.25,-20 149.25,0 214,0 214,-20"/>
<text text-anchor="middle" x="181.62" y="-6.5" font-family="Helvetica,sans-Serif" font-size="10.00">QDateTime</text>
</a>
</g>
</g>
<!-- Node2&#45;&gt;Node5 -->
<g id="edge4_Node000002_Node000005" class="edge">
<title>Node2&#45;&gt;Node5</title>
<g id="a_edge4_Node000002_Node000005"><a xlink:title=" ">
<path fill="none" stroke="#63b8ff" d="M181.62,-55.59C181.62,-49.01 181.62,-39.96 181.62,-31.73"/>
<polygon fill="#63b8ff" stroke="#63b8ff" points="185.13,-31.81 181.63,-21.81 178.13,-31.81 185.13,-31.81"/>
</a>
</g>
</g>
<!-- Node6 -->
<g id="Node000006" class="node">
<title>Node6</title>
<g id="a_Node000006"><a xlink:title=" ">
<polygon fill="#e0e0e0" stroke="#999999" points="283.25,-20 232,-20 232,0 283.25,0 283.25,-20"/>
<text text-anchor="middle" x="257.62" y="-6.5" font-family="Helvetica,sans-Serif" font-size="10.00">QDebug</text>
</a>
</g>
</g>
<!-- Node2&#45;&gt;Node6 -->
<g id="edge5_Node000002_Node000006" class="edge">
<title>Node2&#45;&gt;Node6</title>
<g id="a_edge5_Node000002_Node000006"><a xlink:title=" ">
<path fill="none" stroke="#63b8ff" d="M194.86,-55.59C205.91,-47.74 221.91,-36.38 234.98,-27.09"/>
<polygon fill="#63b8ff" stroke="#63b8ff" points="236.93,-30 243.05,-21.36 232.87,-24.3 236.93,-30"/>
</a>
</g>
</g>
<!-- Node7 -->
<g id="Node000007" class="node">
<title>Node7</title>
<g id="a_Node000007"><a xlink:title=" ">
<polygon fill="#e0e0e0" stroke="#999999" points="354.38,-20 300.88,-20 300.88,0 354.38,0 354.38,-20"/>
<text text-anchor="middle" x="327.62" y="-6.5" font-family="Helvetica,sans-Serif" font-size="10.00">iostream</text>
</a>
</g>
</g>
<!-- Node2&#45;&gt;Node7 -->
<g id="edge6_Node000002_Node000007" class="edge">
<title>Node2&#45;&gt;Node7</title>
<g id="a_edge6_Node000002_Node000007"><a xlink:title=" ">
<path fill="none" stroke="#63b8ff" d="M207.06,-55.59C230.36,-46.97 265.12,-34.12 291.34,-24.42"/>
<polygon fill="#63b8ff" stroke="#63b8ff" points="292.41,-27.76 300.58,-21 289.98,-21.19 292.41,-27.76"/>
</a>
</g>
</g>
</g>
</svg>
