<?xml version="1.0" encoding="UTF-8" standalone="no"?>
<!DOCTYPE svg PUBLIC "-//W3C//DTD SVG 1.1//EN"
 "http://www.w3.org/Graphics/SVG/1.1/DTD/svg11.dtd">
<!-- Generated by graphviz version 11.0.0 (20240428.1522)
 -->
<!-- Title: C:/Users/rbarr/Documents/GitHub/youtubeAudioRetriever/mainwindow.cpp Pages: 1 -->
<svg width="1962pt" height="276pt"
 viewBox="0.00 0.00 1961.50 276.00" xmlns="http://www.w3.org/2000/svg" xmlns:xlink="http://www.w3.org/1999/xlink">
<g id="graph0" class="graph" transform="scale(1 1) rotate(0) translate(4 272)">
<title>C:/Users/rbarr/Documents/GitHub/youtubeAudioRetriever/mainwindow.cpp</title>
<!-- Node1 -->
<g id="Node000001" class="node">
<title>Node1</title>
<g id="a_Node000001"><a xlink:title=" ">
<polygon fill="#999999" stroke="#666666" points="1299.12,-268 1150.38,-268 1150.38,-224 1299.12,-224 1299.12,-268"/>
<text text-anchor="start" x="1158.38" y="-254.5" font-family="Helvetica,sans-Serif" font-size="10.00">C:/Users/rbarr/Documents</text>
<text text-anchor="start" x="1158.38" y="-242.5" font-family="Helvetica,sans-Serif" font-size="10.00">/GitHub/youtubeAudioRetriever</text>
<text text-anchor="middle" x="1224.75" y="-230.5" font-family="Helvetica,sans-Serif" font-size="10.00">/mainwindow.cpp</text>
</a>
</g>
</g>
<!-- Node2 -->
<g id="Node000002" class="node">
<title>Node2</title>
<g id="a_Node000002"><a xlink:href="mainwindow_8h.html" target="_top" xlink:title=" ">
<polygon fill="white" stroke="#666666" points="1212.62,-188 1132.88,-188 1132.88,-168 1212.62,-168 1212.62,-188"/>
<text text-anchor="middle" x="1172.75" y="-174.5" font-family="Helvetica,sans-Serif" font-size="10.00">mainWindow.h</text>
</a>
</g>
</g>
<!-- Node1&#45;&gt;Node2 -->
<g id="edge1_Node000001_Node000002" class="edge">
<title>Node1&#45;&gt;Node2</title>
<g id="a_edge1_Node000001_Node000002"><a xlink:title=" ">
<path fill="none" stroke="#63b8ff" d="M1208.01,-223.75C1201.27,-215.2 1193.57,-205.42 1187.09,-197.2"/>
<polygon fill="#63b8ff" stroke="#63b8ff" points="1190.05,-195.3 1181.11,-189.61 1184.55,-199.63 1190.05,-195.3"/>
</a>
</g>
</g>
<!-- Node44 -->
<g id="Node000044" class="node">
<title>Node44</title>
<g id="a_Node000044"><a xlink:title=" ">
<polygon fill="#e0e0e0" stroke="#999999" points="1323,-188 1230.5,-188 1230.5,-168 1323,-168 1323,-188"/>
<text text-anchor="middle" x="1276.75" y="-174.5" font-family="Helvetica,sans-Serif" font-size="10.00">ui_mainWindow.h</text>
</a>
</g>
</g>
<!-- Node1&#45;&gt;Node44 -->
<g id="edge66_Node000001_Node000044" class="edge">
<title>Node1&#45;&gt;Node44</title>
<g id="a_edge66_Node000001_Node000044"><a xlink:title=" ">
<path fill="none" stroke="#63b8ff" d="M1241.49,-223.75C1248.23,-215.2 1255.93,-205.42 1262.41,-197.2"/>
<polygon fill="#63b8ff" stroke="#63b8ff" points="1264.95,-199.63 1268.39,-189.61 1259.45,-195.3 1264.95,-199.63"/>
</a>
</g>
</g>
<!-- Node3 -->
<g id="Node000003" class="node">
<title>Node3</title>
<g id="a_Node000003"><a xlink:title=" ">
<polygon fill="#e0e0e0" stroke="#999999" points="659.25,-132 580.25,-132 580.25,-112 659.25,-112 659.25,-132"/>
<text text-anchor="middle" x="619.75" y="-118.5" font-family="Helvetica,sans-Serif" font-size="10.00">QmainWindow</text>
</a>
</g>
</g>
<!-- Node2&#45;&gt;Node3 -->
<g id="edge2_Node000002_Node000003" class="edge">
<title>Node2&#45;&gt;Node3</title>
<g id="a_edge2_Node000002_Node000003"><a xlink:title=" ">
<path fill="none" stroke="#63b8ff" d="M1132.54,-174.4C1047.59,-168.69 843.72,-153.8 673.75,-132 672.74,-131.87 671.72,-131.74 670.69,-131.6"/>
<polygon fill="#63b8ff" stroke="#63b8ff" points="671.41,-128.16 661.01,-130.19 670.4,-135.09 671.41,-128.16"/>
</a>
</g>
</g>
<!-- Node4 -->
<g id="Node000004" class="node">
<title>Node4</title>
<g id="a_Node000004"><a xlink:title=" ">
<polygon fill="#e0e0e0" stroke="#999999" points="780.75,-20 728.75,-20 728.75,0 780.75,0 780.75,-20"/>
<text text-anchor="middle" x="754.75" y="-6.5" font-family="Helvetica,sans-Serif" font-size="10.00">QObject</text>
</a>
</g>
</g>
<!-- Node2&#45;&gt;Node4 -->
<g id="edge3_Node000002_Node000004" class="edge">
<title>Node2&#45;&gt;Node4</title>
<g id="a_edge3_Node000002_Node000004"><a xlink:title=" ">
<path fill="none" stroke="#63b8ff" d="M1132.47,-174.74C1051.19,-169.74 870.44,-156.19 813.75,-132 777.42,-116.5 761.73,-111.66 744.75,-76 737.99,-61.81 741.39,-44.08 745.98,-30.73"/>
<polygon fill="#63b8ff" stroke="#63b8ff" points="749.12,-32.31 749.54,-21.72 742.61,-29.74 749.12,-32.31"/>
</a>
</g>
</g>
<!-- Node5 -->
<g id="Node000005" class="node">
<title>Node5</title>
<g id="a_Node000005"><a xlink:title=" ">
<polygon fill="#e0e0e0" stroke="#999999" points="1326.25,-132 1277.25,-132 1277.25,-112 1326.25,-112 1326.25,-132"/>
<text text-anchor="middle" x="1301.75" y="-118.5" font-family="Helvetica,sans-Serif" font-size="10.00">QString</text>
</a>
</g>
</g>
<!-- Node2&#45;&gt;Node5 -->
<g id="edge4_Node000002_Node000005" class="edge">
<title>Node2&#45;&gt;Node5</title>
<g id="a_edge4_Node000002_Node000005"><a xlink:title=" ">
<path fill="none" stroke="#63b8ff" d="M1195.22,-167.59C1215.54,-159.09 1245.7,-146.46 1268.76,-136.81"/>
<polygon fill="#63b8ff" stroke="#63b8ff" points="1269.84,-140.15 1277.71,-133.06 1267.13,-133.7 1269.84,-140.15"/>
</a>
</g>
</g>
<!-- Node6 -->
<g id="Node000006" class="node">
<title>Node6</title>
<g id="a_Node000006"><a xlink:title=" ">
<polygon fill="#e0e0e0" stroke="#999999" points="1204.88,-76 1138.62,-76 1138.62,-56 1204.88,-56 1204.88,-76"/>
<text text-anchor="middle" x="1171.75" y="-62.5" font-family="Helvetica,sans-Serif" font-size="10.00">QFileDialog</text>
</a>
</g>
</g>
<!-- Node2&#45;&gt;Node6 -->
<g id="edge5_Node000002_Node000006" class="edge">
<title>Node2&#45;&gt;Node6</title>
<g id="a_edge5_Node000002_Node000006"><a xlink:title=" ">
<path fill="none" stroke="#63b8ff" d="M1172.66,-167.62C1172.5,-150.01 1172.16,-111.59 1171.94,-87.65"/>
<polygon fill="#63b8ff" stroke="#63b8ff" points="1175.44,-87.84 1171.85,-77.87 1168.44,-87.9 1175.44,-87.84"/>
</a>
</g>
</g>
<!-- Node7 -->
<g id="Node000007" class="node">
<title>Node7</title>
<g id="a_Node000007"><a xlink:title=" ">
<polygon fill="#e0e0e0" stroke="#999999" points="1407.38,-132 1344.12,-132 1344.12,-112 1407.38,-112 1407.38,-132"/>
<text text-anchor="middle" x="1375.75" y="-118.5" font-family="Helvetica,sans-Serif" font-size="10.00">QTreeView</text>
</a>
</g>
</g>
<!-- Node2&#45;&gt;Node7 -->
<g id="edge6_Node000002_Node000007" class="edge">
<title>Node2&#45;&gt;Node7</title>
<g id="a_edge6_Node000002_Node000007"><a xlink:title=" ">
<path fill="none" stroke="#63b8ff" d="M1208.11,-167.59C1242.8,-158.37 1295.75,-144.28 1332.84,-134.41"/>
<polygon fill="#63b8ff" stroke="#63b8ff" points="1333.57,-137.84 1342.34,-131.89 1331.77,-131.08 1333.57,-137.84"/>
</a>
</g>
</g>
<!-- Node8 -->
<g id="Node000008" class="node">
<title>Node8</title>
<g id="a_Node000008"><a xlink:title=" ">
<polygon fill="#e0e0e0" stroke="#999999" points="1521.88,-132 1425.62,-132 1425.62,-112 1521.88,-112 1521.88,-132"/>
<text text-anchor="middle" x="1473.75" y="-118.5" font-family="Helvetica,sans-Serif" font-size="10.00">QDesktopServices</text>
</a>
</g>
</g>
<!-- Node2&#45;&gt;Node8 -->
<g id="edge7_Node000002_Node000008" class="edge">
<title>Node2&#45;&gt;Node8</title>
<g id="a_edge7_Node000002_Node000008"><a xlink:title=" ">
<path fill="none" stroke="#63b8ff" d="M1213.12,-169.57C1216.04,-169.04 1218.94,-168.51 1221.75,-168 1287.61,-156.07 1363.2,-142.6 1414.27,-133.54"/>
<polygon fill="#63b8ff" stroke="#63b8ff" points="1414.7,-137.01 1423.94,-131.82 1413.48,-130.12 1414.7,-137.01"/>
</a>
</g>
</g>
<!-- Node9 -->
<g id="Node000009" class="node">
<title>Node9</title>
<g id="a_Node000009"><a xlink:title=" ">
<polygon fill="#e0e0e0" stroke="#999999" points="1647.5,-132 1540,-132 1540,-112 1647.5,-112 1647.5,-132"/>
<text text-anchor="middle" x="1593.75" y="-118.5" font-family="Helvetica,sans-Serif" font-size="10.00">QStandardItemModel</text>
</a>
</g>
</g>
<!-- Node2&#45;&gt;Node9 -->
<g id="edge8_Node000002_Node000009" class="edge">
<title>Node2&#45;&gt;Node9</title>
<g id="a_edge8_Node000002_Node000009"><a xlink:title=" ">
<path fill="none" stroke="#63b8ff" d="M1213.09,-169.37C1216.02,-168.89 1218.93,-168.42 1221.75,-168 1354.88,-148.04 1391.71,-149.67 1528.47,-132.26"/>
<polygon fill="#63b8ff" stroke="#63b8ff" points="1528.83,-135.74 1538.31,-130.99 1527.94,-128.8 1528.83,-135.74"/>
</a>
</g>
</g>
<!-- Node10 -->
<g id="Node000010" class="node">
<title>Node10</title>
<g id="a_Node000010"><a xlink:title=" ">
<polygon fill="#e0e0e0" stroke="#999999" points="1764.38,-132 1665.12,-132 1665.12,-112 1764.38,-112 1764.38,-132"/>
<text text-anchor="middle" x="1714.75" y="-118.5" font-family="Helvetica,sans-Serif" font-size="10.00">QFileSystemModel</text>
</a>
</g>
</g>
<!-- Node2&#45;&gt;Node10 -->
<g id="edge9_Node000002_Node000010" class="edge">
<title>Node2&#45;&gt;Node10</title>
<g id="a_edge9_Node000002_Node000010"><a xlink:title=" ">
<path fill="none" stroke="#63b8ff" d="M1213.08,-169.27C1216.01,-168.8 1218.92,-168.38 1221.75,-168 1410.39,-142.93 1462.15,-154.43 1653.49,-132.31"/>
<polygon fill="#63b8ff" stroke="#63b8ff" points="1653.77,-135.8 1663.29,-131.16 1652.95,-128.85 1653.77,-135.8"/>
</a>
</g>
</g>
<!-- Node11 -->
<g id="Node000011" class="node">
<title>Node11</title>
<g id="a_Node000011"><a xlink:title=" ">
<polygon fill="#e0e0e0" stroke="#999999" points="1830.88,-132 1782.62,-132 1782.62,-112 1830.88,-112 1830.88,-132"/>
<text text-anchor="middle" x="1806.75" y="-118.5" font-family="Helvetica,sans-Serif" font-size="10.00">QMovie</text>
</a>
</g>
</g>
<!-- Node2&#45;&gt;Node11 -->
<g id="edge10_Node000002_Node000011" class="edge">
<title>Node2&#45;&gt;Node11</title>
<g id="a_edge10_Node000002_Node000011"><a xlink:title=" ">
<path fill="none" stroke="#63b8ff" d="M1213.07,-169.21C1216,-168.76 1218.92,-168.35 1221.75,-168 1462.04,-138.2 1529.24,-171.51 1771.09,-132.11"/>
<polygon fill="#63b8ff" stroke="#63b8ff" points="1771.58,-135.57 1780.87,-130.49 1770.43,-128.67 1771.58,-135.57"/>
</a>
</g>
</g>
<!-- Node12 -->
<g id="Node000012" class="node">
<title>Node12</title>
<g id="a_Node000012"><a xlink:title=" ">
<polygon fill="#e0e0e0" stroke="#999999" points="1932.88,-132 1848.62,-132 1848.62,-112 1932.88,-112 1932.88,-132"/>
<text text-anchor="middle" x="1890.75" y="-118.5" font-family="Helvetica,sans-Serif" font-size="10.00">QKeySequence</text>
</a>
</g>
</g>
<!-- Node2&#45;&gt;Node12 -->
<g id="edge11_Node000002_Node000012" class="edge">
<title>Node2&#45;&gt;Node12</title>
<g id="a_edge11_Node000002_Node000012"><a xlink:title=" ">
<path fill="none" stroke="#63b8ff" d="M1213.07,-169.19C1216,-168.74 1218.92,-168.34 1221.75,-168 1491.31,-135.52 1564.56,-163.21 1837.19,-132.16"/>
<polygon fill="#63b8ff" stroke="#63b8ff" points="1837.19,-135.69 1846.72,-131.06 1836.39,-128.73 1837.19,-135.69"/>
</a>
</g>
</g>
<!-- Node13 -->
<g id="Node000013" class="node">
<title>Node13</title>
<g id="a_Node000013"><a xlink:title=" ">
<polygon fill="#e0e0e0" stroke="#999999" points="1052.38,-76 1001.12,-76 1001.12,-56 1052.38,-56 1052.38,-76"/>
<text text-anchor="middle" x="1026.75" y="-62.5" font-family="Helvetica,sans-Serif" font-size="10.00">memory</text>
</a>
</g>
</g>
<!-- Node2&#45;&gt;Node13 -->
<g id="edge12_Node000002_Node000013" class="edge">
<title>Node2&#45;&gt;Node13</title>
<g id="a_edge12_Node000002_Node000013"><a xlink:title=" ">
<path fill="none" stroke="#63b8ff" d="M1132.49,-172.66C1104.21,-167.53 1067.5,-156.36 1044.75,-132 1033.5,-119.96 1029.18,-101.5 1027.57,-87.33"/>
<polygon fill="#63b8ff" stroke="#63b8ff" points="1031.09,-87.47 1026.86,-77.76 1024.11,-87.99 1031.09,-87.47"/>
</a>
</g>
</g>
<!-- Node14 -->
<g id="Node000014" class="node">
<title>Node14</title>
<g id="a_Node000014"><a xlink:title=" ">
<polygon fill="#e0e0e0" stroke="#999999" points="850.38,-20 799.12,-20 799.12,0 850.38,0 850.38,-20"/>
<text text-anchor="middle" x="824.75" y="-6.5" font-family="Helvetica,sans-Serif" font-size="10.00">QDebug</text>
</a>
</g>
</g>
<!-- Node2&#45;&gt;Node14 -->
<g id="edge13_Node000002_Node000014" class="edge">
<title>Node2&#45;&gt;Node14</title>
<g id="a_edge13_Node000002_Node000014"><a xlink:title=" ">
<path fill="none" stroke="#63b8ff" d="M1132.44,-174.05C1067.54,-168.67 943.44,-155.59 906.75,-132 868.65,-107.5 843.81,-58.34 832.27,-30.82"/>
<polygon fill="#63b8ff" stroke="#63b8ff" points="835.66,-29.87 828.7,-21.89 829.16,-32.47 835.66,-29.87"/>
</a>
</g>
</g>
<!-- Node15 -->
<g id="Node000015" class="node">
<title>Node15</title>
<g id="a_Node000015"><a xlink:title=" ">
<polygon fill="#e0e0e0" stroke="#999999" points="1118.5,-20 1065,-20 1065,0 1118.5,0 1118.5,-20"/>
<text text-anchor="middle" x="1091.75" y="-6.5" font-family="Helvetica,sans-Serif" font-size="10.00">iostream</text>
</a>
</g>
</g>
<!-- Node2&#45;&gt;Node15 -->
<g id="edge14_Node000002_Node000015" class="edge">
<title>Node2&#45;&gt;Node15</title>
<g id="a_edge14_Node000002_Node000015"><a xlink:title=" ">
<path fill="none" stroke="#63b8ff" d="M1181.14,-167.71C1199.43,-146.31 1239.24,-92.57 1213.75,-56 1208.65,-48.69 1163.43,-33.28 1129.51,-22.54"/>
<polygon fill="#63b8ff" stroke="#63b8ff" points="1131,-19.33 1120.41,-19.68 1128.91,-26.01 1131,-19.33"/>
</a>
</g>
</g>
<!-- Node16 -->
<g id="Node000016" class="node">
<title>Node16</title>
<g id="a_Node000016"><a xlink:href="apisettings_8h.html" target="_top" xlink:title=" ">
<polygon fill="white" stroke="#666666" points="996.5,-132 925,-132 925,-112 996.5,-112 996.5,-132"/>
<text text-anchor="middle" x="960.75" y="-118.5" font-family="Helvetica,sans-Serif" font-size="10.00">apisettings.h</text>
</a>
</g>
</g>
<!-- Node2&#45;&gt;Node16 -->
<g id="edge15_Node000002_Node000016" class="edge">
<title>Node2&#45;&gt;Node16</title>
<g id="a_edge15_Node000002_Node000016"><a xlink:title=" ">
<path fill="none" stroke="#63b8ff" d="M1135.82,-167.59C1100.3,-158.55 1046.44,-144.83 1007.85,-135"/>
<polygon fill="#63b8ff" stroke="#63b8ff" points="1008.92,-131.66 998.37,-132.58 1007.19,-138.44 1008.92,-131.66"/>
</a>
</g>
</g>
<!-- Node17 -->
<g id="Node000017" class="node">
<title>Node17</title>
<g id="a_Node000017"><a xlink:href="paramfile_8h.html" target="_top" xlink:title="Header of the paramFile class.">
<polygon fill="white" stroke="#666666" points="983.38,-76 920.12,-76 920.12,-56 983.38,-56 983.38,-76"/>
<text text-anchor="middle" x="951.75" y="-62.5" font-family="Helvetica,sans-Serif" font-size="10.00">paramfile.h</text>
</a>
</g>
</g>
<!-- Node2&#45;&gt;Node17 -->
<g id="edge34_Node000002_Node000017" class="edge">
<title>Node2&#45;&gt;Node17</title>
<g id="a_edge34_Node000002_Node000017"><a xlink:title=" ">
<path fill="none" stroke="#63b8ff" d="M1132.48,-176.01C1067.23,-173.47 942.96,-164.38 915.75,-132 903.45,-117.36 917.46,-97.88 931.44,-84.07"/>
<polygon fill="#63b8ff" stroke="#63b8ff" points="933.79,-86.67 938.79,-77.33 929.06,-81.51 933.79,-86.67"/>
</a>
</g>
</g>
<!-- Node23 -->
<g id="Node000023" class="node">
<title>Node23</title>
<g id="a_Node000023"><a xlink:href="audioreader_8h.html" target="_top" xlink:title=" ">
<polygon fill="white" stroke="#666666" points="349,-76 274.5,-76 274.5,-56 349,-56 349,-76"/>
<text text-anchor="middle" x="311.75" y="-62.5" font-family="Helvetica,sans-Serif" font-size="10.00">audioreader.h</text>
</a>
</g>
</g>
<!-- Node2&#45;&gt;Node23 -->
<g id="edge26_Node000002_Node000023" class="edge">
<title>Node2&#45;&gt;Node23</title>
<g id="a_edge26_Node000002_Node000023"><a xlink:title=" ">
<path fill="none" stroke="#63b8ff" d="M1132.5,-177.47C1051.41,-177.46 863.21,-172.61 711.75,-132 691,-126.44 688.42,-117.86 667.75,-112 560.95,-81.73 430.35,-71.8 360.82,-68.56"/>
<polygon fill="#63b8ff" stroke="#63b8ff" points="361.04,-65.06 350.9,-68.12 360.73,-72.05 361.04,-65.06"/>
</a>
</g>
</g>
<!-- Node29 -->
<g id="Node000029" class="node">
<title>Node29</title>
<g id="a_Node000029"><a xlink:href="youtubedownloader_8h.html" target="_top" xlink:title="Header of the youtubeDownloader class.">
<polygon fill="white" stroke="#666666" points="1575.25,-76 1466.25,-76 1466.25,-56 1575.25,-56 1575.25,-76"/>
<text text-anchor="middle" x="1520.75" y="-62.5" font-family="Helvetica,sans-Serif" font-size="10.00">youtubeDownloader.h</text>
</a>
</g>
</g>
<!-- Node2&#45;&gt;Node29 -->
<g id="edge35_Node000002_Node000029" class="edge">
<title>Node2&#45;&gt;Node29</title>
<g id="a_edge35_Node000002_Node000029"><a xlink:title=" ">
<path fill="none" stroke="#63b8ff" d="M1183.39,-167.54C1200.23,-153.12 1234.63,-125.87 1268.75,-112 1328.85,-87.58 1402.33,-76.38 1454.41,-71.26"/>
<polygon fill="#63b8ff" stroke="#63b8ff" points="1454.7,-74.75 1464.33,-70.34 1454.05,-67.78 1454.7,-74.75"/>
</a>
</g>
</g>
<!-- Node38 -->
<g id="Node000038" class="node">
<title>Node38</title>
<g id="a_Node000038"><a xlink:href="youtubeapi_8h.html" target="_top" xlink:title="Header of the youtubeApi class.">
<polygon fill="white" stroke="#666666" points="825.5,-76 754,-76 754,-56 825.5,-56 825.5,-76"/>
<text text-anchor="middle" x="789.75" y="-62.5" font-family="Helvetica,sans-Serif" font-size="10.00">youtubeapi.h</text>
</a>
</g>
</g>
<!-- Node2&#45;&gt;Node38 -->
<g id="edge47_Node000002_Node000038" class="edge">
<title>Node2&#45;&gt;Node38</title>
<g id="a_edge47_Node000002_Node000038"><a xlink:title=" ">
<path fill="none" stroke="#63b8ff" d="M1132.53,-175.36C1055.14,-171.6 888.79,-160.38 839.75,-132 821.51,-121.44 807.64,-101.35 799.19,-86.29"/>
<polygon fill="#63b8ff" stroke="#63b8ff" points="802.46,-84.99 794.71,-77.76 796.26,-88.24 802.46,-84.99"/>
</a>
</g>
</g>
<!-- Node43 -->
<g id="Node000043" class="node">
<title>Node43</title>
<g id="a_Node000043"><a xlink:href="ressourcepaths_8h.html" target="_top" xlink:title=" ">
<polygon fill="white" stroke="#666666" points="1144.25,-132 1053.25,-132 1053.25,-112 1144.25,-112 1144.25,-132"/>
<text text-anchor="middle" x="1098.75" y="-118.5" font-family="Helvetica,sans-Serif" font-size="10.00">ressourcepaths.h</text>
</a>
</g>
</g>
<!-- Node2&#45;&gt;Node43 -->
<g id="edge62_Node000002_Node000043" class="edge">
<title>Node2&#45;&gt;Node43</title>
<g id="a_edge62_Node000002_Node000043"><a xlink:title=" ">
<path fill="none" stroke="#63b8ff" d="M1159.86,-167.59C1149.04,-159.7 1133.34,-148.24 1120.56,-138.92"/>
<polygon fill="#63b8ff" stroke="#63b8ff" points="1122.86,-136.26 1112.71,-133.19 1118.73,-141.91 1122.86,-136.26"/>
</a>
</g>
</g>
<!-- Node16&#45;&gt;Node13 -->
<g id="edge16_Node000016_Node000013" class="edge">
<title>Node16&#45;&gt;Node13</title>
<g id="a_edge16_Node000016_Node000013"><a xlink:title=" ">
<path fill="none" stroke="#63b8ff" d="M972.25,-111.59C981.71,-103.85 995.35,-92.69 1006.62,-83.47"/>
<polygon fill="#63b8ff" stroke="#63b8ff" points="1008.69,-86.3 1014.21,-77.26 1004.26,-80.88 1008.69,-86.3"/>
</a>
</g>
</g>
<!-- Node16&#45;&gt;Node14 -->
<g id="edge25_Node000016_Node000014" class="edge">
<title>Node16&#45;&gt;Node14</title>
<g id="a_edge25_Node000016_Node000014"><a xlink:title=" ">
<path fill="none" stroke="#63b8ff" d="M949.15,-111.62C926.07,-92.95 874.1,-50.92 845.17,-27.52"/>
<polygon fill="#63b8ff" stroke="#63b8ff" points="847.47,-24.87 837.49,-21.31 843.07,-30.32 847.47,-24.87"/>
</a>
</g>
</g>
<!-- Node16&#45;&gt;Node17 -->
<g id="edge17_Node000016_Node000017" class="edge">
<title>Node16&#45;&gt;Node17</title>
<g id="a_edge17_Node000016_Node000017"><a xlink:title=" ">
<path fill="none" stroke="#63b8ff" d="M959.18,-111.59C958.07,-104.93 956.54,-95.75 955.16,-87.44"/>
<polygon fill="#63b8ff" stroke="#63b8ff" points="958.64,-87.08 953.55,-77.79 951.74,-88.23 958.64,-87.08"/>
</a>
</g>
</g>
<!-- Node22 -->
<g id="Node000022" class="node">
<title>Node22</title>
<g id="a_Node000022"><a xlink:title=" ">
<polygon fill="#e0e0e0" stroke="#999999" points="1121,-76 1070.5,-76 1070.5,-56 1121,-56 1121,-76"/>
<text text-anchor="middle" x="1095.75" y="-62.5" font-family="Helvetica,sans-Serif" font-size="10.00">QDialog</text>
</a>
</g>
</g>
<!-- Node16&#45;&gt;Node22 -->
<g id="edge24_Node000016_Node000022" class="edge">
<title>Node16&#45;&gt;Node22</title>
<g id="a_edge24_Node000016_Node000022"><a xlink:title=" ">
<path fill="none" stroke="#63b8ff" d="M984.27,-111.59C1005.62,-103.05 1037.38,-90.35 1061.55,-80.68"/>
<polygon fill="#63b8ff" stroke="#63b8ff" points="1062.66,-84.01 1070.65,-77.04 1060.06,-77.51 1062.66,-84.01"/>
</a>
</g>
</g>
<!-- Node17&#45;&gt;Node4 -->
<g id="edge18_Node000017_Node000004" class="edge">
<title>Node17&#45;&gt;Node4</title>
<g id="a_edge18_Node000017_Node000004"><a xlink:title=" ">
<path fill="none" stroke="#63b8ff" d="M919.66,-56.2C884.68,-46.62 828.79,-31.3 791.93,-21.19"/>
<polygon fill="#63b8ff" stroke="#63b8ff" points="793.17,-17.9 782.6,-18.64 791.32,-24.65 793.17,-17.9"/>
</a>
</g>
</g>
<!-- Node17&#45;&gt;Node15 -->
<g id="edge23_Node000017_Node000015" class="edge">
<title>Node17&#45;&gt;Node15</title>
<g id="a_edge23_Node000017_Node000015"><a xlink:title=" ">
<path fill="none" stroke="#63b8ff" d="M976.14,-55.59C998.38,-47.01 1031.52,-34.23 1056.62,-24.55"/>
<polygon fill="#63b8ff" stroke="#63b8ff" points="1057.69,-27.89 1065.76,-21.02 1055.17,-21.36 1057.69,-27.89"/>
</a>
</g>
</g>
<!-- Node18 -->
<g id="Node000018" class="node">
<title>Node18</title>
<g id="a_Node000018"><a xlink:title=" ">
<polygon fill="#e0e0e0" stroke="#999999" points="1629.38,-20 1590.12,-20 1590.12,0 1629.38,0 1629.38,-20"/>
<text text-anchor="middle" x="1609.75" y="-6.5" font-family="Helvetica,sans-Serif" font-size="10.00">QFile</text>
</a>
</g>
</g>
<!-- Node17&#45;&gt;Node18 -->
<g id="edge19_Node000017_Node000018" class="edge">
<title>Node17&#45;&gt;Node18</title>
<g id="a_edge19_Node000017_Node000018"><a xlink:title=" ">
<path fill="none" stroke="#63b8ff" d="M983.54,-57.36C986.31,-56.85 989.07,-56.38 991.75,-56 1247.73,-19.62 1320.71,-65.86 1578.71,-19.87"/>
<polygon fill="#63b8ff" stroke="#63b8ff" points="1579.24,-23.34 1588.45,-18.11 1577.99,-16.45 1579.24,-23.34"/>
</a>
</g>
</g>
<!-- Node19 -->
<g id="Node000019" class="node">
<title>Node19</title>
<g id="a_Node000019"><a xlink:title=" ">
<polygon fill="#e0e0e0" stroke="#999999" points="1571.62,-20 1497.88,-20 1497.88,0 1571.62,0 1571.62,-20"/>
<text text-anchor="middle" x="1534.75" y="-6.5" font-family="Helvetica,sans-Serif" font-size="10.00">QTextStream</text>
</a>
</g>
</g>
<!-- Node17&#45;&gt;Node19 -->
<g id="edge20_Node000017_Node000019" class="edge">
<title>Node17&#45;&gt;Node19</title>
<g id="a_edge20_Node000017_Node000019"><a xlink:title=" ">
<path fill="none" stroke="#63b8ff" d="M983.55,-57.4C986.31,-56.87 989.07,-56.4 991.75,-56 1207.2,-24.14 1267.25,-48.48 1486.18,-20.18"/>
<polygon fill="#63b8ff" stroke="#63b8ff" points="1486.45,-23.67 1495.91,-18.9 1485.53,-16.73 1486.45,-23.67"/>
</a>
</g>
</g>
<!-- Node20 -->
<g id="Node000020" class="node">
<title>Node20</title>
<g id="a_Node000020"><a xlink:title=" ">
<polygon fill="#e0e0e0" stroke="#999999" points="956.75,-20 868.75,-20 868.75,0 956.75,0 956.75,-20"/>
<text text-anchor="middle" x="912.75" y="-6.5" font-family="Helvetica,sans-Serif" font-size="10.00">QJsonDocument</text>
</a>
</g>
</g>
<!-- Node17&#45;&gt;Node20 -->
<g id="edge21_Node000017_Node000020" class="edge">
<title>Node17&#45;&gt;Node20</title>
<g id="a_edge21_Node000017_Node000020"><a xlink:title=" ">
<path fill="none" stroke="#63b8ff" d="M944.96,-55.59C939.76,-48.39 932.42,-38.23 926.06,-29.43"/>
<polygon fill="#63b8ff" stroke="#63b8ff" points="929.04,-27.58 920.35,-21.53 923.37,-31.68 929.04,-27.58"/>
</a>
</g>
</g>
<!-- Node21 -->
<g id="Node000021" class="node">
<title>Node21</title>
<g id="a_Node000021"><a xlink:title=" ">
<polygon fill="#e0e0e0" stroke="#999999" points="1046.88,-20 974.62,-20 974.62,0 1046.88,0 1046.88,-20"/>
<text text-anchor="middle" x="1010.75" y="-6.5" font-family="Helvetica,sans-Serif" font-size="10.00">QJsonObject</text>
</a>
</g>
</g>
<!-- Node17&#45;&gt;Node21 -->
<g id="edge22_Node000017_Node000021" class="edge">
<title>Node17&#45;&gt;Node21</title>
<g id="a_edge22_Node000017_Node000021"><a xlink:title=" ">
<path fill="none" stroke="#63b8ff" d="M962.03,-55.59C970.32,-48.01 982.2,-37.13 992.15,-28.02"/>
<polygon fill="#63b8ff" stroke="#63b8ff" points="994.46,-30.65 999.47,-21.32 989.73,-25.49 994.46,-30.65"/>
</a>
</g>
</g>
<!-- Node23&#45;&gt;Node4 -->
<g id="edge27_Node000023_Node000004" class="edge">
<title>Node23&#45;&gt;Node4</title>
<g id="a_edge27_Node000023_Node000004"><a xlink:title=" ">
<path fill="none" stroke="#63b8ff" d="M349.42,-62.64C419.85,-57.84 576.41,-45.35 717.47,-20.18"/>
<polygon fill="#63b8ff" stroke="#63b8ff" points="717.76,-23.68 726.98,-18.46 716.51,-16.8 717.76,-23.68"/>
</a>
</g>
</g>
<!-- Node23&#45;&gt;Node15 -->
<g id="edge33_Node000023_Node000015" class="edge">
<title>Node23&#45;&gt;Node15</title>
<g id="a_edge33_Node000023_Node000015"><a xlink:title=" ">
<path fill="none" stroke="#63b8ff" d="M349.17,-65.17C457.14,-65.14 778.54,-61.43 1053.73,-20"/>
<polygon fill="#63b8ff" stroke="#63b8ff" points="1053.88,-23.52 1063.24,-18.55 1052.82,-16.6 1053.88,-23.52"/>
</a>
</g>
</g>
<!-- Node24 -->
<g id="Node000024" class="node">
<title>Node24</title>
<g id="a_Node000024"><a xlink:title=" ">
<polygon fill="#e0e0e0" stroke="#999999" points="77.5,-20 0,-20 0,0 77.5,0 77.5,-20"/>
<text text-anchor="middle" x="38.75" y="-6.5" font-family="Helvetica,sans-Serif" font-size="10.00">QMediaPlayer</text>
</a>
</g>
</g>
<!-- Node23&#45;&gt;Node24 -->
<g id="edge28_Node000023_Node000024" class="edge">
<title>Node23&#45;&gt;Node24</title>
<g id="a_edge28_Node000023_Node000024"><a xlink:title=" ">
<path fill="none" stroke="#63b8ff" d="M274.08,-57.55C225.97,-48.03 142.57,-31.54 89.07,-20.95"/>
<polygon fill="#63b8ff" stroke="#63b8ff" points="89.77,-17.52 79.28,-19.02 88.42,-24.39 89.77,-17.52"/>
</a>
</g>
</g>
<!-- Node25 -->
<g id="Node000025" class="node">
<title>Node25</title>
<g id="a_Node000025"><a xlink:title=" ">
<polygon fill="#e0e0e0" stroke="#999999" points="149.88,-20 95.62,-20 95.62,0 149.88,0 149.88,-20"/>
<text text-anchor="middle" x="122.75" y="-6.5" font-family="Helvetica,sans-Serif" font-size="10.00">QFileInfo</text>
</a>
</g>
</g>
<!-- Node23&#45;&gt;Node25 -->
<g id="edge29_Node000023_Node000025" class="edge">
<title>Node23&#45;&gt;Node25</title>
<g id="a_edge29_Node000023_Node000025"><a xlink:title=" ">
<path fill="none" stroke="#63b8ff" d="M278.83,-55.59C245.9,-46.19 195.32,-31.73 160.72,-21.85"/>
<polygon fill="#63b8ff" stroke="#63b8ff" points="162.12,-18.61 151.54,-19.23 160.2,-25.34 162.12,-18.61"/>
</a>
</g>
</g>
<!-- Node26 -->
<g id="Node000026" class="node">
<title>Node26</title>
<g id="a_Node000026"><a xlink:title=" ">
<polygon fill="#e0e0e0" stroke="#999999" points="245.5,-20 168,-20 168,0 245.5,0 245.5,-20"/>
<text text-anchor="middle" x="206.75" y="-6.5" font-family="Helvetica,sans-Serif" font-size="10.00">QAudioOutput</text>
</a>
</g>
</g>
<!-- Node23&#45;&gt;Node26 -->
<g id="edge30_Node000023_Node000026" class="edge">
<title>Node23&#45;&gt;Node26</title>
<g id="a_edge30_Node000023_Node000026"><a xlink:title=" ">
<path fill="none" stroke="#63b8ff" d="M293.46,-55.59C277.45,-47.36 253.92,-35.26 235.41,-25.74"/>
<polygon fill="#63b8ff" stroke="#63b8ff" points="237.02,-22.63 226.53,-21.17 233.82,-28.86 237.02,-22.63"/>
</a>
</g>
</g>
<!-- Node27 -->
<g id="Node000027" class="node">
<title>Node27</title>
<g id="a_Node000027"><a xlink:title=" ">
<polygon fill="#e0e0e0" stroke="#999999" points="299.5,-20 264,-20 264,0 299.5,0 299.5,-20"/>
<text text-anchor="middle" x="281.75" y="-6.5" font-family="Helvetica,sans-Serif" font-size="10.00">QUrl</text>
</a>
</g>
</g>
<!-- Node23&#45;&gt;Node27 -->
<g id="edge31_Node000023_Node000027" class="edge">
<title>Node23&#45;&gt;Node27</title>
<g id="a_edge31_Node000023_Node000027"><a xlink:title=" ">
<path fill="none" stroke="#63b8ff" d="M306.52,-55.59C302.65,-48.63 297.24,-38.89 292.47,-30.29"/>
<polygon fill="#63b8ff" stroke="#63b8ff" points="295.57,-28.66 287.65,-21.62 289.45,-32.06 295.57,-28.66"/>
</a>
</g>
</g>
<!-- Node28 -->
<g id="Node000028" class="node">
<title>Node28</title>
<g id="a_Node000028"><a xlink:title=" ">
<polygon fill="#e0e0e0" stroke="#999999" points="365.5,-20 318,-20 318,0 365.5,0 365.5,-20"/>
<text text-anchor="middle" x="341.75" y="-6.5" font-family="Helvetica,sans-Serif" font-size="10.00">QTimer</text>
</a>
</g>
</g>
<!-- Node23&#45;&gt;Node28 -->
<g id="edge32_Node000023_Node000028" class="edge">
<title>Node23&#45;&gt;Node28</title>
<g id="a_edge32_Node000023_Node000028"><a xlink:title=" ">
<path fill="none" stroke="#63b8ff" d="M316.98,-55.59C320.85,-48.63 326.26,-38.89 331.03,-30.29"/>
<polygon fill="#63b8ff" stroke="#63b8ff" points="334.05,-32.06 335.85,-21.62 327.93,-28.66 334.05,-32.06"/>
</a>
</g>
</g>
<!-- Node29&#45;&gt;Node4 -->
<g id="edge36_Node000029_Node000004" class="edge">
<title>Node29&#45;&gt;Node4</title>
<g id="a_edge36_Node000029_Node000004"><a xlink:title=" ">
<path fill="none" stroke="#63b8ff" d="M1466.01,-62.98C1323.1,-57.5 940.17,-41.42 792.1,-20.01"/>
<polygon fill="#63b8ff" stroke="#63b8ff" points="792.92,-16.59 782.51,-18.55 791.87,-23.51 792.92,-16.59"/>
</a>
</g>
</g>
<!-- Node29&#45;&gt;Node15 -->
<g id="edge44_Node000029_Node000015" class="edge">
<title>Node29&#45;&gt;Node15</title>
<g id="a_edge44_Node000029_Node000015"><a xlink:title=" ">
<path fill="none" stroke="#63b8ff" d="M1466.06,-61.01C1392,-55.11 1255.53,-42.47 1129.76,-20.14"/>
<polygon fill="#63b8ff" stroke="#63b8ff" points="1130.75,-16.76 1120.28,-18.43 1129.5,-23.65 1130.75,-16.76"/>
</a>
</g>
</g>
<!-- Node29&#45;&gt;Node18 -->
<g id="edge40_Node000029_Node000018" class="edge">
<title>Node29&#45;&gt;Node18</title>
<g id="a_edge40_Node000029_Node000018"><a xlink:title=" ">
<path fill="none" stroke="#63b8ff" d="M1536.25,-55.59C1549.57,-47.51 1569.03,-35.71 1584.58,-26.27"/>
<polygon fill="#63b8ff" stroke="#63b8ff" points="1586.1,-29.44 1592.83,-21.26 1582.47,-23.46 1586.1,-29.44"/>
</a>
</g>
</g>
<!-- Node30 -->
<g id="Node000030" class="node">
<title>Node30</title>
<g id="a_Node000030"><a xlink:title=" ">
<polygon fill="#e0e0e0" stroke="#999999" points="1367.38,-20 1238.12,-20 1238.12,0 1367.38,0 1367.38,-20"/>
<text text-anchor="middle" x="1302.75" y="-6.5" font-family="Helvetica,sans-Serif" font-size="10.00">QNetworkAccessManager</text>
</a>
</g>
</g>
<!-- Node29&#45;&gt;Node30 -->
<g id="edge37_Node000029_Node000030" class="edge">
<title>Node29&#45;&gt;Node30</title>
<g id="a_edge37_Node000029_Node000030"><a xlink:title=" ">
<path fill="none" stroke="#63b8ff" d="M1482.53,-55.53C1446.22,-46.54 1391.45,-32.97 1351.9,-23.18"/>
<polygon fill="#63b8ff" stroke="#63b8ff" points="1352.95,-19.83 1342.4,-20.82 1351.26,-26.62 1352.95,-19.83"/>
</a>
</g>
</g>
<!-- Node31 -->
<g id="Node000031" class="node">
<title>Node31</title>
<g id="a_Node000031"><a xlink:title=" ">
<polygon fill="#e0e0e0" stroke="#999999" points="1480.12,-20 1385.38,-20 1385.38,0 1480.12,0 1480.12,-20"/>
<text text-anchor="middle" x="1432.75" y="-6.5" font-family="Helvetica,sans-Serif" font-size="10.00">QNetworkRequest</text>
</a>
</g>
</g>
<!-- Node29&#45;&gt;Node31 -->
<g id="edge38_Node000029_Node000031" class="edge">
<title>Node29&#45;&gt;Node31</title>
<g id="a_edge38_Node000029_Node000031"><a xlink:title=" ">
<path fill="none" stroke="#63b8ff" d="M1505.42,-55.59C1492.25,-47.51 1473.02,-35.71 1457.64,-26.27"/>
<polygon fill="#63b8ff" stroke="#63b8ff" points="1459.84,-23.52 1449.49,-21.27 1456.18,-29.48 1459.84,-23.52"/>
</a>
</g>
</g>
<!-- Node32 -->
<g id="Node000032" class="node">
<title>Node32</title>
<g id="a_Node000032"><a xlink:title=" ">
<polygon fill="#e0e0e0" stroke="#999999" points="1220.5,-20 1137,-20 1137,0 1220.5,0 1220.5,-20"/>
<text text-anchor="middle" x="1178.75" y="-6.5" font-family="Helvetica,sans-Serif" font-size="10.00">QNetworkReply</text>
</a>
</g>
</g>
<!-- Node29&#45;&gt;Node32 -->
<g id="edge39_Node000029_Node000032" class="edge">
<title>Node29&#45;&gt;Node32</title>
<g id="a_edge39_Node000029_Node000032"><a xlink:title=" ">
<path fill="none" stroke="#63b8ff" d="M1465.79,-56.95C1409.46,-48.61 1319.01,-34.95 1231.9,-20.5"/>
<polygon fill="#63b8ff" stroke="#63b8ff" points="1232.68,-17.08 1222.24,-18.89 1231.53,-23.98 1232.68,-17.08"/>
</a>
</g>
</g>
<!-- Node33 -->
<g id="Node000033" class="node">
<title>Node33</title>
<g id="a_Node000033"><a xlink:title=" ">
<polygon fill="#e0e0e0" stroke="#999999" points="1953.5,-20 1894,-20 1894,0 1953.5,0 1953.5,-20"/>
<text text-anchor="middle" x="1923.75" y="-6.5" font-family="Helvetica,sans-Serif" font-size="10.00">QProcess</text>
</a>
</g>
</g>
<!-- Node29&#45;&gt;Node33 -->
<g id="edge41_Node000029_Node000033" class="edge">
<title>Node29&#45;&gt;Node33</title>
<g id="a_edge41_Node000029_Node000033"><a xlink:title=" ">
<path fill="none" stroke="#63b8ff" d="M1575.59,-60.01C1644.83,-53.32 1767.81,-40.11 1882.51,-20.23"/>
<polygon fill="#63b8ff" stroke="#63b8ff" points="1882.85,-23.73 1892.09,-18.55 1881.63,-16.83 1882.85,-23.73"/>
</a>
</g>
</g>
<!-- Node34 -->
<g id="Node000034" class="node">
<title>Node34</title>
<g id="a_Node000034"><a xlink:title=" ">
<polygon fill="#e0e0e0" stroke="#999999" points="1699.75,-20 1647.75,-20 1647.75,0 1699.75,0 1699.75,-20"/>
<text text-anchor="middle" x="1673.75" y="-6.5" font-family="Helvetica,sans-Serif" font-size="10.00">QQueue</text>
</a>
</g>
</g>
<!-- Node29&#45;&gt;Node34 -->
<g id="edge42_Node000029_Node000034" class="edge">
<title>Node29&#45;&gt;Node34</title>
<g id="a_edge42_Node000029_Node000034"><a xlink:title=" ">
<path fill="none" stroke="#63b8ff" d="M1547.4,-55.59C1572.08,-46.88 1609.03,-33.84 1636.6,-24.11"/>
<polygon fill="#63b8ff" stroke="#63b8ff" points="1637.71,-27.43 1645.98,-20.8 1635.38,-20.83 1637.71,-27.43"/>
</a>
</g>
</g>
<!-- Node35 -->
<g id="Node000035" class="node">
<title>Node35</title>
<g id="a_Node000035"><a xlink:title=" ">
<polygon fill="#e0e0e0" stroke="#999999" points="1753.5,-20 1718,-20 1718,0 1753.5,0 1753.5,-20"/>
<text text-anchor="middle" x="1735.75" y="-6.5" font-family="Helvetica,sans-Serif" font-size="10.00">QDir</text>
</a>
</g>
</g>
<!-- Node29&#45;&gt;Node35 -->
<g id="edge43_Node000029_Node000035" class="edge">
<title>Node29&#45;&gt;Node35</title>
<g id="a_edge43_Node000029_Node000035"><a xlink:title=" ">
<path fill="none" stroke="#63b8ff" d="M1565.1,-55.53C1600.98,-47.61 1653.01,-35.55 1706.75,-20.39"/>
<polygon fill="#63b8ff" stroke="#63b8ff" points="1707.41,-23.84 1716.06,-17.73 1705.48,-17.11 1707.41,-23.84"/>
</a>
</g>
</g>
<!-- Node36 -->
<g id="Node000036" class="node">
<title>Node36</title>
<g id="a_Node000036"><a xlink:title=" ">
<polygon fill="#e0e0e0" stroke="#999999" points="1816,-20 1771.5,-20 1771.5,0 1816,0 1816,-20"/>
<text text-anchor="middle" x="1793.75" y="-6.5" font-family="Helvetica,sans-Serif" font-size="10.00">cstdlib</text>
</a>
</g>
</g>
<!-- Node29&#45;&gt;Node36 -->
<g id="edge45_Node000029_Node000036" class="edge">
<title>Node29&#45;&gt;Node36</title>
<g id="a_edge45_Node000029_Node000036"><a xlink:title=" ">
<path fill="none" stroke="#63b8ff" d="M1575.38,-56.43C1622.14,-48.73 1691.45,-36.48 1760.12,-20.45"/>
<polygon fill="#63b8ff" stroke="#63b8ff" points="1760.73,-23.9 1769.66,-18.19 1759.12,-17.09 1760.73,-23.9"/>
</a>
</g>
</g>
<!-- Node37 -->
<g id="Node000037" class="node">
<title>Node37</title>
<g id="a_Node000037"><a xlink:title=" ">
<polygon fill="#e0e0e0" stroke="#999999" points="1875.88,-20 1833.62,-20 1833.62,0 1875.88,0 1875.88,-20"/>
<text text-anchor="middle" x="1854.75" y="-6.5" font-family="Helvetica,sans-Serif" font-size="10.00">cstdio</text>
</a>
</g>
</g>
<!-- Node29&#45;&gt;Node37 -->
<g id="edge46_Node000029_Node000037" class="edge">
<title>Node29&#45;&gt;Node37</title>
<g id="a_edge46_Node000029_Node000037"><a xlink:title=" ">
<path fill="none" stroke="#63b8ff" d="M1575.55,-59.3C1634.37,-52.65 1730.67,-40.22 1822.1,-20.33"/>
<polygon fill="#63b8ff" stroke="#63b8ff" points="1822.73,-23.77 1831.74,-18.19 1821.22,-16.94 1822.73,-23.77"/>
</a>
</g>
</g>
<!-- Node38&#45;&gt;Node4 -->
<g id="edge49_Node000038_Node000004" class="edge">
<title>Node38&#45;&gt;Node4</title>
<g id="a_edge49_Node000038_Node000004"><a xlink:title=" ">
<path fill="none" stroke="#63b8ff" d="M783.65,-55.59C779.04,-48.47 772.54,-38.45 766.88,-29.72"/>
<polygon fill="#63b8ff" stroke="#63b8ff" points="769.98,-28.06 761.6,-21.57 764.1,-31.86 769.98,-28.06"/>
</a>
</g>
</g>
<!-- Node38&#45;&gt;Node14 -->
<g id="edge59_Node000038_Node000014" class="edge">
<title>Node38&#45;&gt;Node14</title>
<g id="a_edge59_Node000038_Node000014"><a xlink:title=" ">
<path fill="none" stroke="#63b8ff" d="M795.85,-55.59C800.46,-48.47 806.96,-38.45 812.62,-29.72"/>
<polygon fill="#63b8ff" stroke="#63b8ff" points="815.4,-31.86 817.9,-21.57 809.52,-28.06 815.4,-31.86"/>
</a>
</g>
</g>
<!-- Node38&#45;&gt;Node15 -->
<g id="edge61_Node000038_Node000015" class="edge">
<title>Node38&#45;&gt;Node15</title>
<g id="a_edge61_Node000038_Node000015"><a xlink:title=" ">
<path fill="none" stroke="#63b8ff" d="M825.63,-59.83C874.78,-52.56 966.04,-38.35 1053.48,-20.34"/>
<polygon fill="#63b8ff" stroke="#63b8ff" points="1054.12,-23.78 1063.19,-18.32 1052.69,-16.93 1054.12,-23.78"/>
</a>
</g>
</g>
<!-- Node38&#45;&gt;Node20 -->
<g id="edge56_Node000038_Node000020" class="edge">
<title>Node38&#45;&gt;Node20</title>
<g id="a_edge56_Node000038_Node000020"><a xlink:title=" ">
<path fill="none" stroke="#63b8ff" d="M811.17,-55.59C830.37,-47.17 858.79,-34.69 880.69,-25.07"/>
<polygon fill="#63b8ff" stroke="#63b8ff" points="882.02,-28.31 889.77,-21.09 879.21,-21.9 882.02,-28.31"/>
</a>
</g>
</g>
<!-- Node38&#45;&gt;Node21 -->
<g id="edge57_Node000038_Node000021" class="edge">
<title>Node38&#45;&gt;Node21</title>
<g id="a_edge57_Node000038_Node000021"><a xlink:title=" ">
<path fill="none" stroke="#63b8ff" d="M825.75,-56.2C863.2,-47.05 922.03,-32.68 963.27,-22.6"/>
<polygon fill="#63b8ff" stroke="#63b8ff" points="964.04,-26.02 972.93,-20.24 962.38,-19.22 964.04,-26.02"/>
</a>
</g>
</g>
<!-- Node38&#45;&gt;Node27 -->
<g id="edge54_Node000038_Node000027" class="edge">
<title>Node38&#45;&gt;Node27</title>
<g id="a_edge54_Node000038_Node000027"><a xlink:title=" ">
<path fill="none" stroke="#63b8ff" d="M753.73,-64.43C674.87,-62.59 481.05,-54.82 311.06,-20.01"/>
<polygon fill="#63b8ff" stroke="#63b8ff" points="311.88,-16.6 301.38,-17.98 310.45,-23.46 311.88,-16.6"/>
</a>
</g>
</g>
<!-- Node38&#45;&gt;Node28 -->
<g id="edge48_Node000038_Node000028" class="edge">
<title>Node38&#45;&gt;Node28</title>
<g id="a_edge48_Node000038_Node000028"><a xlink:title=" ">
<path fill="none" stroke="#63b8ff" d="M753.56,-63.12C682.81,-59 521.14,-47.46 376.99,-20.36"/>
<polygon fill="#63b8ff" stroke="#63b8ff" points="377.73,-16.94 367.25,-18.5 376.41,-23.82 377.73,-16.94"/>
</a>
</g>
</g>
<!-- Node38&#45;&gt;Node30 -->
<g id="edge51_Node000038_Node000030" class="edge">
<title>Node38&#45;&gt;Node30</title>
<g id="a_edge51_Node000038_Node000030"><a xlink:title=" ">
<path fill="none" stroke="#63b8ff" d="M826,-61.55C899.51,-54.5 1071.68,-37.7 1226.75,-20.32"/>
<polygon fill="#63b8ff" stroke="#63b8ff" points="1226.83,-23.83 1236.38,-19.24 1226.05,-16.88 1226.83,-23.83"/>
</a>
</g>
</g>
<!-- Node38&#45;&gt;Node31 -->
<g id="edge52_Node000038_Node000031" class="edge">
<title>Node38&#45;&gt;Node31</title>
<g id="a_edge52_Node000038_Node000031"><a xlink:title=" ">
<path fill="none" stroke="#63b8ff" d="M825.83,-62.32C941.41,-53.71 1298.91,-27.02 1373.84,-20.07"/>
<polygon fill="#63b8ff" stroke="#63b8ff" points="1374.03,-23.57 1383.62,-19.08 1373.32,-16.6 1374.03,-23.57"/>
</a>
</g>
</g>
<!-- Node38&#45;&gt;Node32 -->
<g id="edge53_Node000038_Node000032" class="edge">
<title>Node38&#45;&gt;Node32</title>
<g id="a_edge53_Node000038_Node000032"><a xlink:title=" ">
<path fill="none" stroke="#63b8ff" d="M825.84,-60.7C885.8,-53.46 1009.98,-37.98 1125.59,-20.28"/>
<polygon fill="#63b8ff" stroke="#63b8ff" points="1125.9,-23.77 1135.25,-18.79 1124.84,-16.85 1125.9,-23.77"/>
</a>
</g>
</g>
<!-- Node39 -->
<g id="Node000039" class="node">
<title>Node39</title>
<g id="a_Node000039"><a xlink:title=" ">
<polygon fill="#e0e0e0" stroke="#999999" points="630.62,-20 538.88,-20 538.88,0 630.62,0 630.62,-20"/>
<text text-anchor="middle" x="584.75" y="-6.5" font-family="Helvetica,sans-Serif" font-size="10.00">QCoreApplication</text>
</a>
</g>
</g>
<!-- Node38&#45;&gt;Node39 -->
<g id="edge50_Node000038_Node000039" class="edge">
<title>Node38&#45;&gt;Node39</title>
<g id="a_edge50_Node000038_Node000039"><a xlink:title=" ">
<path fill="none" stroke="#63b8ff" d="M754.04,-55.59C720.15,-46.67 669,-33.19 631.8,-23.39"/>
<polygon fill="#63b8ff" stroke="#63b8ff" points="632.76,-20.03 622.2,-20.87 630.98,-26.8 632.76,-20.03"/>
</a>
</g>
</g>
<!-- Node40 -->
<g id="Node000040" class="node">
<title>Node40</title>
<g id="a_Node000040"><a xlink:title=" ">
<polygon fill="#e0e0e0" stroke="#999999" points="710.62,-20 648.88,-20 648.88,0 710.62,0 710.62,-20"/>
<text text-anchor="middle" x="679.75" y="-6.5" font-family="Helvetica,sans-Serif" font-size="10.00">QUrlQuery</text>
</a>
</g>
</g>
<!-- Node38&#45;&gt;Node40 -->
<g id="edge55_Node000038_Node000040" class="edge">
<title>Node38&#45;&gt;Node40</title>
<g id="a_edge55_Node000038_Node000040"><a xlink:title=" ">
<path fill="none" stroke="#63b8ff" d="M770.59,-55.59C753.66,-47.28 728.7,-35.03 709.23,-25.47"/>
<polygon fill="#63b8ff" stroke="#63b8ff" points="710.94,-22.41 700.42,-21.15 707.85,-28.7 710.94,-22.41"/>
</a>
</g>
</g>
<!-- Node41 -->
<g id="Node000041" class="node">
<title>Node41</title>
<g id="a_Node000041"><a xlink:title=" ">
<polygon fill="#e0e0e0" stroke="#999999" points="450.25,-20 383.25,-20 383.25,0 450.25,0 450.25,-20"/>
<text text-anchor="middle" x="416.75" y="-6.5" font-family="Helvetica,sans-Serif" font-size="10.00">QJsonArray</text>
</a>
</g>
</g>
<!-- Node38&#45;&gt;Node41 -->
<g id="edge58_Node000038_Node000041" class="edge">
<title>Node38&#45;&gt;Node41</title>
<g id="a_edge58_Node000038_Node000041"><a xlink:title=" ">
<path fill="none" stroke="#63b8ff" d="M753.97,-60.96C695.23,-54.15 574.42,-39.38 461.73,-20.23"/>
<polygon fill="#63b8ff" stroke="#63b8ff" points="462.45,-16.8 452,-18.56 461.26,-23.7 462.45,-16.8"/>
</a>
</g>
</g>
<!-- Node42 -->
<g id="Node000042" class="node">
<title>Node42</title>
<g id="a_Node000042"><a xlink:title=" ">
<polygon fill="#e0e0e0" stroke="#999999" points="520.75,-20 468.75,-20 468.75,0 520.75,0 520.75,-20"/>
<text text-anchor="middle" x="494.75" y="-6.5" font-family="Helvetica,sans-Serif" font-size="10.00">QVector</text>
</a>
</g>
</g>
<!-- Node38&#45;&gt;Node42 -->
<g id="edge60_Node000038_Node000042" class="edge">
<title>Node38&#45;&gt;Node42</title>
<g id="a_edge60_Node000038_Node000042"><a xlink:title=" ">
<path fill="none" stroke="#63b8ff" d="M753.83,-59.72C705.61,-52.42 617.09,-38.32 532.21,-20.39"/>
<polygon fill="#63b8ff" stroke="#63b8ff" points="533.06,-16.99 522.55,-18.33 531.6,-23.84 533.06,-16.99"/>
</a>
</g>
</g>
<!-- Node43&#45;&gt;Node6 -->
<g id="edge64_Node000043_Node000006" class="edge">
<title>Node43&#45;&gt;Node6</title>
<g id="a_edge64_Node000043_Node000006"><a xlink:title=" ">
<path fill="none" stroke="#63b8ff" d="M1111.47,-111.59C1122.14,-103.7 1137.63,-92.24 1150.23,-82.92"/>
<polygon fill="#63b8ff" stroke="#63b8ff" points="1152.01,-85.96 1157.96,-77.2 1147.84,-80.33 1152.01,-85.96"/>
</a>
</g>
</g>
<!-- Node43&#45;&gt;Node17 -->
<g id="edge65_Node000043_Node000017" class="edge">
<title>Node43&#45;&gt;Node17</title>
<g id="a_edge65_Node000043_Node000017"><a xlink:title=" ">
<path fill="none" stroke="#63b8ff" d="M1073.14,-111.59C1049.68,-102.97 1014.68,-90.12 988.28,-80.42"/>
<polygon fill="#63b8ff" stroke="#63b8ff" points="989.57,-77.16 978.98,-77 987.16,-83.73 989.57,-77.16"/>
</a>
</g>
</g>
<!-- Node43&#45;&gt;Node22 -->
<g id="edge63_Node000043_Node000022" class="edge">
<title>Node43&#45;&gt;Node22</title>
<g id="a_edge63_Node000043_Node000022"><a xlink:title=" ">
<path fill="none" stroke="#63b8ff" d="M1098.23,-111.59C1097.86,-105.01 1097.36,-95.96 1096.9,-87.73"/>
<polygon fill="#63b8ff" stroke="#63b8ff" points="1100.4,-87.6 1096.35,-77.81 1093.41,-87.99 1100.4,-87.6"/>
</a>
</g>
</g>
</g>
</svg>
