<?xml version="1.0" encoding="UTF-8" standalone="no"?>
<!DOCTYPE svg PUBLIC "-//W3C//DTD SVG 1.1//EN"
 "http://www.w3.org/Graphics/SVG/1.1/DTD/svg11.dtd">
<!-- Generated by graphviz version 11.0.0 (20240428.1522)
 -->
<!-- Title: C:/Users/rbarr/Documents/GitHub/youtubeAudioRetriever/mainwindow.h Pages: 1 -->
<svg width="324pt" height="132pt"
 viewBox="0.00 0.00 323.75 132.00" xmlns="http://www.w3.org/2000/svg" xmlns:xlink="http://www.w3.org/1999/xlink">
<g id="graph0" class="graph" transform="scale(1 1) rotate(0) translate(4 128)">
<title>C:/Users/rbarr/Documents/GitHub/youtubeAudioRetriever/mainwindow.h</title>
<!-- Node1 -->
<g id="Node000001" class="node">
<title>Node1</title>
<g id="a_Node000001"><a xlink:title=" ">
<polygon fill="#999999" stroke="#666666" points="231.75,-124 83,-124 83,-80 231.75,-80 231.75,-124"/>
<text text-anchor="start" x="91" y="-110.5" font-family="Helvetica,sans-Serif" font-size="10.00">C:/Users/rbarr/Documents</text>
<text text-anchor="start" x="91" y="-98.5" font-family="Helvetica,sans-Serif" font-size="10.00">/GitHub/youtubeAudioRetriever</text>
<text text-anchor="middle" x="157.38" y="-86.5" font-family="Helvetica,sans-Serif" font-size="10.00">/mainwindow.h</text>
</a>
</g>
</g>
<!-- Node2 -->
<g id="Node000002" class="node">
<title>Node2</title>
<g id="a_Node000002"><a xlink:href="main_8cpp.html" target="_top" xlink:title=" ">
<polygon fill="white" stroke="#666666" points="148.75,-44 0,-44 0,0 148.75,0 148.75,-44"/>
<text text-anchor="start" x="8" y="-30.5" font-family="Helvetica,sans-Serif" font-size="10.00">C:/Users/rbarr/Documents</text>
<text text-anchor="start" x="8" y="-18.5" font-family="Helvetica,sans-Serif" font-size="10.00">/GitHub/youtubeAudioRetriever</text>
<text text-anchor="middle" x="74.38" y="-6.5" font-family="Helvetica,sans-Serif" font-size="10.00">/main.cpp</text>
</a>
</g>
</g>
<!-- Node1&#45;&gt;Node2 -->
<g id="edge1_Node000001_Node000002" class="edge">
<title>Node1&#45;&gt;Node2</title>
<g id="a_edge1_Node000001_Node000002"><a xlink:title=" ">
<path fill="none" stroke="#63b8ff" d="M126.4,-71.89C116.66,-62.74 106.08,-52.8 97.03,-44.29"/>
<polygon fill="#63b8ff" stroke="#63b8ff" points="123.91,-74.35 133.59,-78.65 128.7,-69.25 123.91,-74.35"/>
</a>
</g>
</g>
<!-- Node3 -->
<g id="Node000003" class="node">
<title>Node3</title>
<g id="a_Node000003"><a xlink:href="mainwindow_8cpp.html" target="_top" xlink:title=" ">
<polygon fill="white" stroke="#666666" points="315.75,-44 167,-44 167,0 315.75,0 315.75,-44"/>
<text text-anchor="start" x="175" y="-30.5" font-family="Helvetica,sans-Serif" font-size="10.00">C:/Users/rbarr/Documents</text>
<text text-anchor="start" x="175" y="-18.5" font-family="Helvetica,sans-Serif" font-size="10.00">/GitHub/youtubeAudioRetriever</text>
<text text-anchor="middle" x="241.38" y="-6.5" font-family="Helvetica,sans-Serif" font-size="10.00">/mainwindow.cpp</text>
</a>
</g>
</g>
<!-- Node1&#45;&gt;Node3 -->
<g id="edge2_Node000001_Node000003" class="edge">
<title>Node1&#45;&gt;Node3</title>
<g id="a_edge2_Node000001_Node000003"><a xlink:title=" ">
<path fill="none" stroke="#63b8ff" d="M188.72,-71.89C198.58,-62.74 209.29,-52.8 218.45,-44.29"/>
<polygon fill="#63b8ff" stroke="#63b8ff" points="186.38,-69.29 181.44,-78.66 191.15,-74.42 186.38,-69.29"/>
</a>
</g>
</g>
</g>
</svg>
