<?xml version="1.0" encoding="UTF-8" standalone="no"?>
<!DOCTYPE svg PUBLIC "-//W3C//DTD SVG 1.1//EN"
 "http://www.w3.org/Graphics/SVG/1.1/DTD/svg11.dtd">
<!-- Generated by graphviz version 11.0.0 (20240428.1522)
 -->
<!-- Title: C:/Users/rbarr/Documents/GitHub/youtubeAudioRetriever/paramfile.h Pages: 1 -->
<svg width="582pt" height="292pt"
 viewBox="0.00 0.00 581.68 292.00" xmlns="http://www.w3.org/2000/svg" xmlns:xlink="http://www.w3.org/1999/xlink">
<g id="graph0" class="graph" transform="scale(1 1) rotate(0) translate(4 288)">
<title>C:/Users/rbarr/Documents/GitHub/youtubeAudioRetriever/paramfile.h</title>
<!-- Node1 -->
<g id="Node000001" class="node">
<title>Node1</title>
<g id="a_Node000001"><a xlink:title="Header of the paramFile class.">
<polygon fill="#999999" stroke="#666666" points="384.75,-284 236,-284 236,-240 384.75,-240 384.75,-284"/>
<text text-anchor="start" x="244" y="-270.5" font-family="Helvetica,sans-Serif" font-size="10.00">C:/Users/rbarr/Documents</text>
<text text-anchor="start" x="244" y="-258.5" font-family="Helvetica,sans-Serif" font-size="10.00">/GitHub/youtubeAudioRetriever</text>
<text text-anchor="middle" x="310.38" y="-246.5" font-family="Helvetica,sans-Serif" font-size="10.00">/paramfile.h</text>
</a>
</g>
</g>
<!-- Node2 -->
<g id="Node000002" class="node">
<title>Node2</title>
<g id="a_Node000002"><a xlink:href="apisettings_8h.html" target="_top" xlink:title=" ">
<polygon fill="white" stroke="#666666" points="180.75,-204 32,-204 32,-160 180.75,-160 180.75,-204"/>
<text text-anchor="start" x="40" y="-190.5" font-family="Helvetica,sans-Serif" font-size="10.00">C:/Users/rbarr/Documents</text>
<text text-anchor="start" x="40" y="-178.5" font-family="Helvetica,sans-Serif" font-size="10.00">/GitHub/youtubeAudioRetriever</text>
<text text-anchor="middle" x="106.38" y="-166.5" font-family="Helvetica,sans-Serif" font-size="10.00">/apisettings.h</text>
</a>
</g>
</g>
<!-- Node1&#45;&gt;Node2 -->
<g id="edge1_Node000001_Node000002" class="edge">
<title>Node1&#45;&gt;Node2</title>
<g id="a_edge1_Node000001_Node000002"><a xlink:title=" ">
<path fill="none" stroke="#63b8ff" d="M243.7,-235.51C217.36,-225.44 187.44,-214 162.26,-204.37"/>
<polygon fill="#63b8ff" stroke="#63b8ff" points="242.36,-238.74 252.95,-239.04 244.86,-232.2 242.36,-238.74"/>
</a>
</g>
</g>
<!-- Node4 -->
<g id="Node000004" class="node">
<title>Node4</title>
<g id="a_Node000004"><a xlink:href="mainwindow_8h.html" target="_top" xlink:title=" ">
<polygon fill="white" stroke="#666666" points="315.75,-124 167,-124 167,-80 315.75,-80 315.75,-124"/>
<text text-anchor="start" x="175" y="-110.5" font-family="Helvetica,sans-Serif" font-size="10.00">C:/Users/rbarr/Documents</text>
<text text-anchor="start" x="175" y="-98.5" font-family="Helvetica,sans-Serif" font-size="10.00">/GitHub/youtubeAudioRetriever</text>
<text text-anchor="middle" x="241.38" y="-86.5" font-family="Helvetica,sans-Serif" font-size="10.00">/mainwindow.h</text>
</a>
</g>
</g>
<!-- Node1&#45;&gt;Node4 -->
<g id="edge7_Node000001_Node000004" class="edge">
<title>Node1&#45;&gt;Node4</title>
<g id="a_edge7_Node000001_Node000004"><a xlink:title=" ">
<path fill="none" stroke="#63b8ff" d="M253.74,-233.22C243.14,-225.3 233.48,-215.61 227.38,-204 214.18,-178.94 222.95,-145.75 231.38,-124.38"/>
<polygon fill="#63b8ff" stroke="#63b8ff" points="251.76,-236.1 261.98,-238.86 255.71,-230.32 251.76,-236.1"/>
</a>
</g>
</g>
<!-- Node5 -->
<g id="Node000005" class="node">
<title>Node5</title>
<g id="a_Node000005"><a xlink:href="main_8cpp.html" target="_top" xlink:title=" ">
<polygon fill="white" stroke="#666666" points="551.75,-44 403,-44 403,0 551.75,0 551.75,-44"/>
<text text-anchor="start" x="411" y="-30.5" font-family="Helvetica,sans-Serif" font-size="10.00">C:/Users/rbarr/Documents</text>
<text text-anchor="start" x="411" y="-18.5" font-family="Helvetica,sans-Serif" font-size="10.00">/GitHub/youtubeAudioRetriever</text>
<text text-anchor="middle" x="477.38" y="-6.5" font-family="Helvetica,sans-Serif" font-size="10.00">/main.cpp</text>
</a>
</g>
</g>
<!-- Node1&#45;&gt;Node5 -->
<g id="edge6_Node000001_Node000005" class="edge">
<title>Node1&#45;&gt;Node5</title>
<g id="a_edge6_Node000001_Node000005"><a xlink:title=" ">
<path fill="none" stroke="#63b8ff" d="M396.44,-252.74C460.39,-244.61 539.95,-229.61 560.38,-204 600.69,-153.46 537.82,-80.18 501,-44.34"/>
<polygon fill="#63b8ff" stroke="#63b8ff" points="396.1,-249.25 386.6,-253.94 396.96,-256.2 396.1,-249.25"/>
</a>
</g>
</g>
<!-- Node7 -->
<g id="Node000007" class="node">
<title>Node7</title>
<g id="a_Node000007"><a xlink:href="paramfile_8cpp.html" target="_top" xlink:title="Implementation of the paramFile class.">
<polygon fill="white" stroke="#666666" points="551.75,-204 403,-204 403,-160 551.75,-160 551.75,-204"/>
<text text-anchor="start" x="411" y="-190.5" font-family="Helvetica,sans-Serif" font-size="10.00">C:/Users/rbarr/Documents</text>
<text text-anchor="start" x="411" y="-178.5" font-family="Helvetica,sans-Serif" font-size="10.00">/GitHub/youtubeAudioRetriever</text>
<text text-anchor="middle" x="477.38" y="-166.5" font-family="Helvetica,sans-Serif" font-size="10.00">/paramfile.cpp</text>
</a>
</g>
</g>
<!-- Node1&#45;&gt;Node7 -->
<g id="edge8_Node000001_Node000007" class="edge">
<title>Node1&#45;&gt;Node7</title>
<g id="a_edge8_Node000001_Node000007"><a xlink:title=" ">
<path fill="none" stroke="#63b8ff" d="M366.18,-234.93C387.4,-225.02 411.31,-213.86 431.51,-204.42"/>
<polygon fill="#63b8ff" stroke="#63b8ff" points="364.96,-231.64 357.38,-239.05 367.92,-237.98 364.96,-231.64"/>
</a>
</g>
</g>
<!-- Node8 -->
<g id="Node000008" class="node">
<title>Node8</title>
<g id="a_Node000008"><a xlink:href="ressourcepaths_8h.html" target="_top" xlink:title=" ">
<polygon fill="white" stroke="#666666" points="384.75,-204 236,-204 236,-160 384.75,-160 384.75,-204"/>
<text text-anchor="start" x="244" y="-190.5" font-family="Helvetica,sans-Serif" font-size="10.00">C:/Users/rbarr/Documents</text>
<text text-anchor="start" x="244" y="-178.5" font-family="Helvetica,sans-Serif" font-size="10.00">/GitHub/youtubeAudioRetriever</text>
<text text-anchor="middle" x="310.38" y="-166.5" font-family="Helvetica,sans-Serif" font-size="10.00">/ressourcepaths.h</text>
</a>
</g>
</g>
<!-- Node1&#45;&gt;Node8 -->
<g id="edge9_Node000001_Node000008" class="edge">
<title>Node1&#45;&gt;Node8</title>
<g id="a_edge9_Node000001_Node000008"><a xlink:title=" ">
<path fill="none" stroke="#63b8ff" d="M310.38,-228.25C310.38,-220.15 310.38,-211.68 310.38,-204.29"/>
<polygon fill="#63b8ff" stroke="#63b8ff" points="306.88,-228.17 310.38,-238.17 313.88,-228.17 306.88,-228.17"/>
</a>
</g>
</g>
<!-- Node3 -->
<g id="Node000003" class="node">
<title>Node3</title>
<g id="a_Node000003"><a xlink:href="apisettings_8cpp.html" target="_top" xlink:title=" ">
<polygon fill="white" stroke="#666666" points="148.75,-124 0,-124 0,-80 148.75,-80 148.75,-124"/>
<text text-anchor="start" x="8" y="-110.5" font-family="Helvetica,sans-Serif" font-size="10.00">C:/Users/rbarr/Documents</text>
<text text-anchor="start" x="8" y="-98.5" font-family="Helvetica,sans-Serif" font-size="10.00">/GitHub/youtubeAudioRetriever</text>
<text text-anchor="middle" x="74.38" y="-86.5" font-family="Helvetica,sans-Serif" font-size="10.00">/apisettings.cpp</text>
</a>
</g>
</g>
<!-- Node2&#45;&gt;Node3 -->
<g id="edge2_Node000002_Node000003" class="edge">
<title>Node2&#45;&gt;Node3</title>
<g id="a_edge2_Node000002_Node000003"><a xlink:title=" ">
<path fill="none" stroke="#63b8ff" d="M93.29,-149.1C89.86,-140.74 86.25,-131.94 83.11,-124.29"/>
<polygon fill="#63b8ff" stroke="#63b8ff" points="90.02,-150.36 97.06,-158.29 96.5,-147.71 90.02,-150.36"/>
</a>
</g>
</g>
<!-- Node2&#45;&gt;Node4 -->
<g id="edge3_Node000002_Node000004" class="edge">
<title>Node2&#45;&gt;Node4</title>
<g id="a_edge3_Node000002_Node000004"><a xlink:title=" ">
<path fill="none" stroke="#63b8ff" d="M152.94,-154.1C169.81,-144.35 188.61,-133.49 204.53,-124.29"/>
<polygon fill="#63b8ff" stroke="#63b8ff" points="151.48,-150.9 144.57,-158.93 154.98,-156.96 151.48,-150.9"/>
</a>
</g>
</g>
<!-- Node4&#45;&gt;Node5 -->
<g id="edge4_Node000004_Node000005" class="edge">
<title>Node4&#45;&gt;Node5</title>
<g id="a_edge4_Node000004_Node000005"><a xlink:title=" ">
<path fill="none" stroke="#63b8ff" d="M316.89,-76.04C347.74,-65.84 383.08,-54.17 412.72,-44.37"/>
<polygon fill="#63b8ff" stroke="#63b8ff" points="316.01,-72.65 307.61,-79.11 318.21,-79.29 316.01,-72.65"/>
</a>
</g>
</g>
<!-- Node6 -->
<g id="Node000006" class="node">
<title>Node6</title>
<g id="a_Node000006"><a xlink:href="mainwindow_8cpp.html" target="_top" xlink:title=" ">
<polygon fill="white" stroke="#666666" points="315.75,-44 167,-44 167,0 315.75,0 315.75,-44"/>
<text text-anchor="start" x="175" y="-30.5" font-family="Helvetica,sans-Serif" font-size="10.00">C:/Users/rbarr/Documents</text>
<text text-anchor="start" x="175" y="-18.5" font-family="Helvetica,sans-Serif" font-size="10.00">/GitHub/youtubeAudioRetriever</text>
<text text-anchor="middle" x="241.38" y="-6.5" font-family="Helvetica,sans-Serif" font-size="10.00">/mainwindow.cpp</text>
</a>
</g>
</g>
<!-- Node4&#45;&gt;Node6 -->
<g id="edge5_Node000004_Node000006" class="edge">
<title>Node4&#45;&gt;Node6</title>
<g id="a_edge5_Node000004_Node000006"><a xlink:title=" ">
<path fill="none" stroke="#63b8ff" d="M241.38,-68.25C241.38,-60.15 241.38,-51.68 241.38,-44.29"/>
<polygon fill="#63b8ff" stroke="#63b8ff" points="237.88,-68.17 241.38,-78.17 244.88,-68.17 237.88,-68.17"/>
</a>
</g>
</g>
<!-- Node8&#45;&gt;Node4 -->
<g id="edge10_Node000008_Node000004" class="edge">
<title>Node8&#45;&gt;Node4</title>
<g id="a_edge10_Node000008_Node000004"><a xlink:title=" ">
<path fill="none" stroke="#63b8ff" d="M284.14,-151.34C276.17,-142.33 267.58,-132.63 260.21,-124.29"/>
<polygon fill="#63b8ff" stroke="#63b8ff" points="281.27,-153.38 290.52,-158.55 286.51,-148.74 281.27,-153.38"/>
</a>
</g>
</g>
<!-- Node9 -->
<g id="Node000009" class="node">
<title>Node9</title>
<g id="a_Node000009"><a xlink:href="ressourcepaths_8cpp.html" target="_top" xlink:title=" ">
<polygon fill="white" stroke="#666666" points="482.75,-124 334,-124 334,-80 482.75,-80 482.75,-124"/>
<text text-anchor="start" x="342" y="-110.5" font-family="Helvetica,sans-Serif" font-size="10.00">C:/Users/rbarr/Documents</text>
<text text-anchor="start" x="342" y="-98.5" font-family="Helvetica,sans-Serif" font-size="10.00">/GitHub/youtubeAudioRetriever</text>
<text text-anchor="middle" x="408.38" y="-86.5" font-family="Helvetica,sans-Serif" font-size="10.00">/ressourcepaths.cpp</text>
</a>
</g>
</g>
<!-- Node8&#45;&gt;Node9 -->
<g id="edge11_Node000008_Node000009" class="edge">
<title>Node8&#45;&gt;Node9</title>
<g id="a_edge11_Node000008_Node000009"><a xlink:title=" ">
<path fill="none" stroke="#63b8ff" d="M345.9,-152.72C357.69,-143.34 370.61,-133.06 381.63,-124.29"/>
<polygon fill="#63b8ff" stroke="#63b8ff" points="343.98,-149.78 338.34,-158.74 348.34,-155.25 343.98,-149.78"/>
</a>
</g>
</g>
</g>
</svg>
