<?xml version="1.0" encoding="UTF-8" standalone="no"?>
<!DOCTYPE svg PUBLIC "-//W3C//DTD SVG 1.1//EN"
 "http://www.w3.org/Graphics/SVG/1.1/DTD/svg11.dtd">
<!-- Generated by graphviz version 11.0.0 (20240428.1522)
 -->
<!-- Title: C:/Users/rbarr/Documents/GitHub/youtubeAudioRetriever/paramfile.h Pages: 1 -->
<svg width="478pt" height="108pt"
 viewBox="0.00 0.00 477.75 108.00" xmlns="http://www.w3.org/2000/svg" xmlns:xlink="http://www.w3.org/1999/xlink">
<g id="graph0" class="graph" transform="scale(1 1) rotate(0) translate(4 104)">
<title>C:/Users/rbarr/Documents/GitHub/youtubeAudioRetriever/paramfile.h</title>
<!-- Node1 -->
<g id="Node000001" class="node">
<title>Node1</title>
<g id="a_Node000001"><a xlink:title="Header of the paramFile class.">
<polygon fill="#999999" stroke="#666666" points="288.38,-100 139.62,-100 139.62,-56 288.38,-56 288.38,-100"/>
<text text-anchor="start" x="147.62" y="-86.5" font-family="Helvetica,sans-Serif" font-size="10.00">C:/Users/rbarr/Documents</text>
<text text-anchor="start" x="147.62" y="-74.5" font-family="Helvetica,sans-Serif" font-size="10.00">/GitHub/youtubeAudioRetriever</text>
<text text-anchor="middle" x="214" y="-62.5" font-family="Helvetica,sans-Serif" font-size="10.00">/paramfile.h</text>
</a>
</g>
</g>
<!-- Node2 -->
<g id="Node000002" class="node">
<title>Node2</title>
<g id="a_Node000002"><a xlink:title=" ">
<polygon fill="#e0e0e0" stroke="#999999" points="52,-20 0,-20 0,0 52,0 52,-20"/>
<text text-anchor="middle" x="26" y="-6.5" font-family="Helvetica,sans-Serif" font-size="10.00">QObject</text>
</a>
</g>
</g>
<!-- Node1&#45;&gt;Node2 -->
<g id="edge1_Node000001_Node000002" class="edge">
<title>Node1&#45;&gt;Node2</title>
<g id="a_edge1_Node000001_Node000002"><a xlink:title=" ">
<path fill="none" stroke="#63b8ff" d="M152.96,-55.57C123.26,-45.15 88.54,-32.95 62.92,-23.96"/>
<polygon fill="#63b8ff" stroke="#63b8ff" points="64.21,-20.7 53.61,-20.69 61.89,-27.31 64.21,-20.7"/>
</a>
</g>
</g>
<!-- Node3 -->
<g id="Node000003" class="node">
<title>Node3</title>
<g id="a_Node000003"><a xlink:title=" ">
<polygon fill="#e0e0e0" stroke="#999999" points="109.62,-20 70.38,-20 70.38,0 109.62,0 109.62,-20"/>
<text text-anchor="middle" x="90" y="-6.5" font-family="Helvetica,sans-Serif" font-size="10.00">QFile</text>
</a>
</g>
</g>
<!-- Node1&#45;&gt;Node3 -->
<g id="edge2_Node000001_Node000003" class="edge">
<title>Node1&#45;&gt;Node3</title>
<g id="a_edge2_Node000001_Node000003"><a xlink:title=" ">
<path fill="none" stroke="#63b8ff" d="M173.74,-55.57C155.41,-45.81 134.18,-34.51 117.68,-25.73"/>
<polygon fill="#63b8ff" stroke="#63b8ff" points="119.4,-22.69 108.93,-21.08 116.11,-28.86 119.4,-22.69"/>
</a>
</g>
</g>
<!-- Node4 -->
<g id="Node000004" class="node">
<title>Node4</title>
<g id="a_Node000004"><a xlink:title=" ">
<polygon fill="#e0e0e0" stroke="#999999" points="201.88,-20 128.12,-20 128.12,0 201.88,0 201.88,-20"/>
<text text-anchor="middle" x="165" y="-6.5" font-family="Helvetica,sans-Serif" font-size="10.00">QTextStream</text>
</a>
</g>
</g>
<!-- Node1&#45;&gt;Node4 -->
<g id="edge3_Node000001_Node000004" class="edge">
<title>Node1&#45;&gt;Node4</title>
<g id="a_edge3_Node000001_Node000004"><a xlink:title=" ">
<path fill="none" stroke="#63b8ff" d="M198.23,-55.75C191.94,-47.29 184.77,-37.64 178.71,-29.47"/>
<polygon fill="#63b8ff" stroke="#63b8ff" points="181.67,-27.58 172.9,-21.63 176.05,-31.75 181.67,-27.58"/>
</a>
</g>
</g>
<!-- Node5 -->
<g id="Node000005" class="node">
<title>Node5</title>
<g id="a_Node000005"><a xlink:title=" ">
<polygon fill="#e0e0e0" stroke="#999999" points="308,-20 220,-20 220,0 308,0 308,-20"/>
<text text-anchor="middle" x="264" y="-6.5" font-family="Helvetica,sans-Serif" font-size="10.00">QJsonDocument</text>
</a>
</g>
</g>
<!-- Node1&#45;&gt;Node5 -->
<g id="edge4_Node000001_Node000005" class="edge">
<title>Node1&#45;&gt;Node5</title>
<g id="a_edge4_Node000001_Node000005"><a xlink:title=" ">
<path fill="none" stroke="#63b8ff" d="M230.1,-55.75C236.51,-47.29 243.82,-37.64 250.01,-29.47"/>
<polygon fill="#63b8ff" stroke="#63b8ff" points="252.7,-31.71 255.95,-21.63 247.12,-27.48 252.7,-31.71"/>
</a>
</g>
</g>
<!-- Node6 -->
<g id="Node000006" class="node">
<title>Node6</title>
<g id="a_Node000006"><a xlink:title=" ">
<polygon fill="#e0e0e0" stroke="#999999" points="398.12,-20 325.88,-20 325.88,0 398.12,0 398.12,-20"/>
<text text-anchor="middle" x="362" y="-6.5" font-family="Helvetica,sans-Serif" font-size="10.00">QJsonObject</text>
</a>
</g>
</g>
<!-- Node1&#45;&gt;Node6 -->
<g id="edge5_Node000001_Node000006" class="edge">
<title>Node1&#45;&gt;Node6</title>
<g id="a_edge5_Node000001_Node000006"><a xlink:title=" ">
<path fill="none" stroke="#63b8ff" d="M262.05,-55.57C284.56,-45.54 310.73,-33.87 330.64,-24.98"/>
<polygon fill="#63b8ff" stroke="#63b8ff" points="331.91,-28.25 339.62,-20.98 329.06,-21.86 331.91,-28.25"/>
</a>
</g>
</g>
<!-- Node7 -->
<g id="Node000007" class="node">
<title>Node7</title>
<g id="a_Node000007"><a xlink:title=" ">
<polygon fill="#e0e0e0" stroke="#999999" points="469.75,-20 416.25,-20 416.25,0 469.75,0 469.75,-20"/>
<text text-anchor="middle" x="443" y="-6.5" font-family="Helvetica,sans-Serif" font-size="10.00">iostream</text>
</a>
</g>
</g>
<!-- Node1&#45;&gt;Node7 -->
<g id="edge6_Node000001_Node000007" class="edge">
<title>Node1&#45;&gt;Node7</title>
<g id="a_edge6_Node000001_Node000007"><a xlink:title=" ">
<path fill="none" stroke="#63b8ff" d="M288.35,-55.57C327.32,-44.34 373.38,-31.06 405.04,-21.94"/>
<polygon fill="#63b8ff" stroke="#63b8ff" points="405.92,-25.33 414.56,-19.2 403.99,-18.6 405.92,-25.33"/>
</a>
</g>
</g>
</g>
</svg>
