<?xml version="1.0" encoding="UTF-8" standalone="no"?>
<!DOCTYPE svg PUBLIC "-//W3C//DTD SVG 1.1//EN"
 "http://www.w3.org/Graphics/SVG/1.1/DTD/svg11.dtd">
<!-- Generated by graphviz version 11.0.0 (20240428.1522)
 -->
<!-- Title: C:/Users/rbarr/Documents/GitHub/youtubeAudioRetriever/ressourcepaths.h Pages: 1 -->
<svg width="478pt" height="164pt"
 viewBox="0.00 0.00 477.75 164.00" xmlns="http://www.w3.org/2000/svg" xmlns:xlink="http://www.w3.org/1999/xlink">
<g id="graph0" class="graph" transform="scale(1 1) rotate(0) translate(4 160)">
<title>C:/Users/rbarr/Documents/GitHub/youtubeAudioRetriever/ressourcepaths.h</title>
<!-- Node1 -->
<g id="Node000001" class="node">
<title>Node1</title>
<g id="a_Node000001"><a xlink:title=" ">
<polygon fill="#999999" stroke="#666666" points="205.38,-156 56.62,-156 56.62,-112 205.38,-112 205.38,-156"/>
<text text-anchor="start" x="64.62" y="-142.5" font-family="Helvetica,sans-Serif" font-size="10.00">C:/Users/rbarr/Documents</text>
<text text-anchor="start" x="64.62" y="-130.5" font-family="Helvetica,sans-Serif" font-size="10.00">/GitHub/youtubeAudioRetriever</text>
<text text-anchor="middle" x="131" y="-118.5" font-family="Helvetica,sans-Serif" font-size="10.00">/ressourcepaths.h</text>
</a>
</g>
</g>
<!-- Node2 -->
<g id="Node000002" class="node">
<title>Node2</title>
<g id="a_Node000002"><a xlink:title=" ">
<polygon fill="#e0e0e0" stroke="#999999" points="80.25,-76 29.75,-76 29.75,-56 80.25,-56 80.25,-76"/>
<text text-anchor="middle" x="55" y="-62.5" font-family="Helvetica,sans-Serif" font-size="10.00">QDialog</text>
</a>
</g>
</g>
<!-- Node1&#45;&gt;Node2 -->
<g id="edge1_Node000001_Node000002" class="edge">
<title>Node1&#45;&gt;Node2</title>
<g id="a_edge1_Node000001_Node000002"><a xlink:title=" ">
<path fill="none" stroke="#63b8ff" d="M106.53,-111.75C96.14,-102.73 84.2,-92.36 74.43,-83.87"/>
<polygon fill="#63b8ff" stroke="#63b8ff" points="76.83,-81.33 66.99,-77.41 72.24,-86.61 76.83,-81.33"/>
</a>
</g>
</g>
<!-- Node3 -->
<g id="Node000003" class="node">
<title>Node3</title>
<g id="a_Node000003"><a xlink:title=" ">
<polygon fill="#e0e0e0" stroke="#999999" points="164.12,-76 97.88,-76 97.88,-56 164.12,-56 164.12,-76"/>
<text text-anchor="middle" x="131" y="-62.5" font-family="Helvetica,sans-Serif" font-size="10.00">QFileDialog</text>
</a>
</g>
</g>
<!-- Node1&#45;&gt;Node3 -->
<g id="edge2_Node000001_Node000003" class="edge">
<title>Node1&#45;&gt;Node3</title>
<g id="a_edge2_Node000001_Node000003"><a xlink:title=" ">
<path fill="none" stroke="#63b8ff" d="M131,-111.75C131,-104.13 131,-95.53 131,-87.93"/>
<polygon fill="#63b8ff" stroke="#63b8ff" points="134.5,-87.93 131,-77.93 127.5,-87.93 134.5,-87.93"/>
</a>
</g>
</g>
<!-- Node4 -->
<g id="Node000004" class="node">
<title>Node4</title>
<g id="a_Node000004"><a xlink:href="paramfile_8h.html" target="_top" xlink:title="Header of the paramFile class.">
<polygon fill="white" stroke="#666666" points="245.62,-76 182.38,-76 182.38,-56 245.62,-56 245.62,-76"/>
<text text-anchor="middle" x="214" y="-62.5" font-family="Helvetica,sans-Serif" font-size="10.00">paramfile.h</text>
</a>
</g>
</g>
<!-- Node1&#45;&gt;Node4 -->
<g id="edge3_Node000001_Node000004" class="edge">
<title>Node1&#45;&gt;Node4</title>
<g id="a_edge3_Node000001_Node000004"><a xlink:title=" ">
<path fill="none" stroke="#63b8ff" d="M157.72,-111.75C169.3,-102.54 182.65,-91.93 193.44,-83.35"/>
<polygon fill="#63b8ff" stroke="#63b8ff" points="195.32,-86.32 200.97,-77.36 190.96,-80.85 195.32,-86.32"/>
</a>
</g>
</g>
<!-- Node5 -->
<g id="Node000005" class="node">
<title>Node5</title>
<g id="a_Node000005"><a xlink:title=" ">
<polygon fill="#e0e0e0" stroke="#999999" points="52,-20 0,-20 0,0 52,0 52,-20"/>
<text text-anchor="middle" x="26" y="-6.5" font-family="Helvetica,sans-Serif" font-size="10.00">QObject</text>
</a>
</g>
</g>
<!-- Node4&#45;&gt;Node5 -->
<g id="edge4_Node000004_Node000005" class="edge">
<title>Node4&#45;&gt;Node5</title>
<g id="a_edge4_Node000004_Node000005"><a xlink:title=" ">
<path fill="none" stroke="#63b8ff" d="M182.11,-55.84C149.12,-46.36 97.65,-31.58 62.92,-21.6"/>
<polygon fill="#63b8ff" stroke="#63b8ff" points="64.31,-18.36 53.73,-18.96 62.37,-25.09 64.31,-18.36"/>
</a>
</g>
</g>
<!-- Node6 -->
<g id="Node000006" class="node">
<title>Node6</title>
<g id="a_Node000006"><a xlink:title=" ">
<polygon fill="#e0e0e0" stroke="#999999" points="109.62,-20 70.38,-20 70.38,0 109.62,0 109.62,-20"/>
<text text-anchor="middle" x="90" y="-6.5" font-family="Helvetica,sans-Serif" font-size="10.00">QFile</text>
</a>
</g>
</g>
<!-- Node4&#45;&gt;Node6 -->
<g id="edge5_Node000004_Node000006" class="edge">
<title>Node4&#45;&gt;Node6</title>
<g id="a_edge5_Node000004_Node000006"><a xlink:title=" ">
<path fill="none" stroke="#63b8ff" d="M192.4,-55.59C172.48,-46.92 142.72,-33.96 120.4,-24.24"/>
<polygon fill="#63b8ff" stroke="#63b8ff" points="122.07,-21.15 111.51,-20.37 119.28,-27.57 122.07,-21.15"/>
</a>
</g>
</g>
<!-- Node7 -->
<g id="Node000007" class="node">
<title>Node7</title>
<g id="a_Node000007"><a xlink:title=" ">
<polygon fill="#e0e0e0" stroke="#999999" points="201.88,-20 128.12,-20 128.12,0 201.88,0 201.88,-20"/>
<text text-anchor="middle" x="165" y="-6.5" font-family="Helvetica,sans-Serif" font-size="10.00">QTextStream</text>
</a>
</g>
</g>
<!-- Node4&#45;&gt;Node7 -->
<g id="edge6_Node000004_Node000007" class="edge">
<title>Node4&#45;&gt;Node7</title>
<g id="a_edge6_Node000004_Node000007"><a xlink:title=" ">
<path fill="none" stroke="#63b8ff" d="M205.46,-55.59C198.72,-48.16 189.11,-37.58 180.96,-28.58"/>
<polygon fill="#63b8ff" stroke="#63b8ff" points="183.77,-26.47 174.45,-21.42 178.58,-31.18 183.77,-26.47"/>
</a>
</g>
</g>
<!-- Node8 -->
<g id="Node000008" class="node">
<title>Node8</title>
<g id="a_Node000008"><a xlink:title=" ">
<polygon fill="#e0e0e0" stroke="#999999" points="308,-20 220,-20 220,0 308,0 308,-20"/>
<text text-anchor="middle" x="264" y="-6.5" font-family="Helvetica,sans-Serif" font-size="10.00">QJsonDocument</text>
</a>
</g>
</g>
<!-- Node4&#45;&gt;Node8 -->
<g id="edge7_Node000004_Node000008" class="edge">
<title>Node4&#45;&gt;Node8</title>
<g id="a_edge7_Node000004_Node000008"><a xlink:title=" ">
<path fill="none" stroke="#63b8ff" d="M222.71,-55.59C229.59,-48.16 239.39,-37.58 247.72,-28.58"/>
<polygon fill="#63b8ff" stroke="#63b8ff" points="250.14,-31.12 254.36,-21.41 245,-26.37 250.14,-31.12"/>
</a>
</g>
</g>
<!-- Node9 -->
<g id="Node000009" class="node">
<title>Node9</title>
<g id="a_Node000009"><a xlink:title=" ">
<polygon fill="#e0e0e0" stroke="#999999" points="398.12,-20 325.88,-20 325.88,0 398.12,0 398.12,-20"/>
<text text-anchor="middle" x="362" y="-6.5" font-family="Helvetica,sans-Serif" font-size="10.00">QJsonObject</text>
</a>
</g>
</g>
<!-- Node4&#45;&gt;Node9 -->
<g id="edge8_Node000004_Node000009" class="edge">
<title>Node4&#45;&gt;Node9</title>
<g id="a_edge8_Node000004_Node000009"><a xlink:title=" ">
<path fill="none" stroke="#63b8ff" d="M239.78,-55.59C263.4,-46.97 298.64,-34.12 325.22,-24.42"/>
<polygon fill="#63b8ff" stroke="#63b8ff" points="326.4,-27.71 334.6,-21 324,-21.14 326.4,-27.71"/>
</a>
</g>
</g>
<!-- Node10 -->
<g id="Node000010" class="node">
<title>Node10</title>
<g id="a_Node000010"><a xlink:title=" ">
<polygon fill="#e0e0e0" stroke="#999999" points="469.75,-20 416.25,-20 416.25,0 469.75,0 469.75,-20"/>
<text text-anchor="middle" x="443" y="-6.5" font-family="Helvetica,sans-Serif" font-size="10.00">iostream</text>
</a>
</g>
</g>
<!-- Node4&#45;&gt;Node10 -->
<g id="edge9_Node000004_Node000010" class="edge">
<title>Node4&#45;&gt;Node10</title>
<g id="a_edge9_Node000004_Node000010"><a xlink:title=" ">
<path fill="none" stroke="#63b8ff" d="M245.8,-57.75C281.91,-49.48 342.9,-35.4 404.74,-20.52"/>
<polygon fill="#63b8ff" stroke="#63b8ff" points="405.51,-23.93 414.41,-18.18 403.87,-17.13 405.51,-23.93"/>
</a>
</g>
</g>
</g>
</svg>
