<?xml version="1.0" encoding="UTF-8" standalone="no"?>
<!DOCTYPE svg PUBLIC "-//W3C//DTD SVG 1.1//EN"
 "http://www.w3.org/Graphics/SVG/1.1/DTD/svg11.dtd">
<!-- Generated by graphviz version 11.0.0 (20240428.1522)
 -->
<!-- Title: C:/Users/rbarr/Documents/GitHub/youtubeAudioRetriever/youtubeapi.h Pages: 1 -->
<svg width="1225pt" height="108pt"
 viewBox="0.00 0.00 1224.50 108.00" xmlns="http://www.w3.org/2000/svg" xmlns:xlink="http://www.w3.org/1999/xlink">
<g id="graph0" class="graph" transform="scale(1 1) rotate(0) translate(4 104)">
<title>C:/Users/rbarr/Documents/GitHub/youtubeAudioRetriever/youtubeapi.h</title>
<!-- Node1 -->
<g id="Node000001" class="node">
<title>Node1</title>
<g id="a_Node000001"><a xlink:title="Header of the youtubeApi class.">
<polygon fill="#999999" stroke="#666666" points="733.12,-100 584.38,-100 584.38,-56 733.12,-56 733.12,-100"/>
<text text-anchor="start" x="592.38" y="-86.5" font-family="Helvetica,sans-Serif" font-size="10.00">C:/Users/rbarr/Documents</text>
<text text-anchor="start" x="592.38" y="-74.5" font-family="Helvetica,sans-Serif" font-size="10.00">/GitHub/youtubeAudioRetriever</text>
<text text-anchor="middle" x="658.75" y="-62.5" font-family="Helvetica,sans-Serif" font-size="10.00">/youtubeapi.h</text>
</a>
</g>
</g>
<!-- Node2 -->
<g id="Node000002" class="node">
<title>Node2</title>
<g id="a_Node000002"><a xlink:title=" ">
<polygon fill="#e0e0e0" stroke="#999999" points="47.5,-20 0,-20 0,0 47.5,0 47.5,-20"/>
<text text-anchor="middle" x="23.75" y="-6.5" font-family="Helvetica,sans-Serif" font-size="10.00">QTimer</text>
</a>
</g>
</g>
<!-- Node1&#45;&gt;Node2 -->
<g id="edge1_Node000001_Node000002" class="edge">
<title>Node1&#45;&gt;Node2</title>
<g id="a_edge1_Node000001_Node000002"><a xlink:title=" ">
<path fill="none" stroke="#63b8ff" d="M584.04,-74.06C471.87,-68.72 253.25,-54.81 59.07,-20.11"/>
<polygon fill="#63b8ff" stroke="#63b8ff" points="59.74,-16.68 49.28,-18.34 58.5,-23.57 59.74,-16.68"/>
</a>
</g>
</g>
<!-- Node3 -->
<g id="Node000003" class="node">
<title>Node3</title>
<g id="a_Node000003"><a xlink:title=" ">
<polygon fill="#e0e0e0" stroke="#999999" points="117.75,-20 65.75,-20 65.75,0 117.75,0 117.75,-20"/>
<text text-anchor="middle" x="91.75" y="-6.5" font-family="Helvetica,sans-Serif" font-size="10.00">QObject</text>
</a>
</g>
</g>
<!-- Node1&#45;&gt;Node3 -->
<g id="edge2_Node000001_Node000003" class="edge">
<title>Node1&#45;&gt;Node3</title>
<g id="a_edge2_Node000001_Node000003"><a xlink:title=" ">
<path fill="none" stroke="#63b8ff" d="M584.25,-72.44C483.19,-65.49 296.94,-50.01 129.3,-20.22"/>
<polygon fill="#63b8ff" stroke="#63b8ff" points="129.98,-16.79 119.52,-18.46 128.74,-23.68 129.98,-16.79"/>
</a>
</g>
</g>
<!-- Node4 -->
<g id="Node000004" class="node">
<title>Node4</title>
<g id="a_Node000004"><a xlink:title=" ">
<polygon fill="#e0e0e0" stroke="#999999" points="227.62,-20 135.88,-20 135.88,0 227.62,0 227.62,-20"/>
<text text-anchor="middle" x="181.75" y="-6.5" font-family="Helvetica,sans-Serif" font-size="10.00">QCoreApplication</text>
</a>
</g>
</g>
<!-- Node1&#45;&gt;Node4 -->
<g id="edge3_Node000001_Node000004" class="edge">
<title>Node1&#45;&gt;Node4</title>
<g id="a_edge3_Node000001_Node000004"><a xlink:title=" ">
<path fill="none" stroke="#63b8ff" d="M583.96,-67.54C501.92,-57.02 366.09,-39.17 239.03,-20.31"/>
<polygon fill="#63b8ff" stroke="#63b8ff" points="239.85,-16.89 229.45,-18.88 238.82,-23.81 239.85,-16.89"/>
</a>
</g>
</g>
<!-- Node5 -->
<g id="Node000005" class="node">
<title>Node5</title>
<g id="a_Node000005"><a xlink:title=" ">
<polygon fill="#e0e0e0" stroke="#999999" points="375.38,-20 246.12,-20 246.12,0 375.38,0 375.38,-20"/>
<text text-anchor="middle" x="310.75" y="-6.5" font-family="Helvetica,sans-Serif" font-size="10.00">QNetworkAccessManager</text>
</a>
</g>
</g>
<!-- Node1&#45;&gt;Node5 -->
<g id="edge4_Node000001_Node000005" class="edge">
<title>Node1&#45;&gt;Node5</title>
<g id="a_edge4_Node000001_Node000005"><a xlink:title=" ">
<path fill="none" stroke="#63b8ff" d="M584.1,-62.84C520.68,-50.81 430.79,-33.77 371.65,-22.55"/>
<polygon fill="#63b8ff" stroke="#63b8ff" points="372.58,-19.16 362.1,-20.74 371.27,-26.04 372.58,-19.16"/>
</a>
</g>
</g>
<!-- Node6 -->
<g id="Node000006" class="node">
<title>Node6</title>
<g id="a_Node000006"><a xlink:title=" ">
<polygon fill="#e0e0e0" stroke="#999999" points="488.12,-20 393.38,-20 393.38,0 488.12,0 488.12,-20"/>
<text text-anchor="middle" x="440.75" y="-6.5" font-family="Helvetica,sans-Serif" font-size="10.00">QNetworkRequest</text>
</a>
</g>
</g>
<!-- Node1&#45;&gt;Node6 -->
<g id="edge5_Node000001_Node000006" class="edge">
<title>Node1&#45;&gt;Node6</title>
<g id="a_edge5_Node000001_Node000006"><a xlink:title=" ">
<path fill="none" stroke="#63b8ff" d="M587.97,-55.57C553.25,-45.06 512.59,-32.75 482.82,-23.74"/>
<polygon fill="#63b8ff" stroke="#63b8ff" points="484,-20.44 473.42,-20.89 481.98,-27.14 484,-20.44"/>
</a>
</g>
</g>
<!-- Node7 -->
<g id="Node000007" class="node">
<title>Node7</title>
<g id="a_Node000007"><a xlink:title=" ">
<polygon fill="#e0e0e0" stroke="#999999" points="589.5,-20 506,-20 506,0 589.5,0 589.5,-20"/>
<text text-anchor="middle" x="547.75" y="-6.5" font-family="Helvetica,sans-Serif" font-size="10.00">QNetworkReply</text>
</a>
</g>
</g>
<!-- Node1&#45;&gt;Node7 -->
<g id="edge6_Node000001_Node000007" class="edge">
<title>Node1&#45;&gt;Node7</title>
<g id="a_edge6_Node000001_Node000007"><a xlink:title=" ">
<path fill="none" stroke="#63b8ff" d="M622.71,-55.57C606.61,-46 588.02,-34.94 573.37,-26.24"/>
<polygon fill="#63b8ff" stroke="#63b8ff" points="575.19,-23.24 564.8,-21.14 571.61,-29.26 575.19,-23.24"/>
</a>
</g>
</g>
<!-- Node8 -->
<g id="Node000008" class="node">
<title>Node8</title>
<g id="a_Node000008"><a xlink:title=" ">
<polygon fill="#e0e0e0" stroke="#999999" points="643.5,-20 608,-20 608,0 643.5,0 643.5,-20"/>
<text text-anchor="middle" x="625.75" y="-6.5" font-family="Helvetica,sans-Serif" font-size="10.00">QUrl</text>
</a>
</g>
</g>
<!-- Node1&#45;&gt;Node8 -->
<g id="edge7_Node000001_Node000008" class="edge">
<title>Node1&#45;&gt;Node8</title>
<g id="a_edge7_Node000001_Node000008"><a xlink:title=" ">
<path fill="none" stroke="#63b8ff" d="M648.13,-55.75C644.08,-47.66 639.49,-38.48 635.53,-30.55"/>
<polygon fill="#63b8ff" stroke="#63b8ff" points="638.74,-29.15 631.14,-21.77 632.48,-32.28 638.74,-29.15"/>
</a>
</g>
</g>
<!-- Node9 -->
<g id="Node000009" class="node">
<title>Node9</title>
<g id="a_Node000009"><a xlink:title=" ">
<polygon fill="#e0e0e0" stroke="#999999" points="723.62,-20 661.88,-20 661.88,0 723.62,0 723.62,-20"/>
<text text-anchor="middle" x="692.75" y="-6.5" font-family="Helvetica,sans-Serif" font-size="10.00">QUrlQuery</text>
</a>
</g>
</g>
<!-- Node1&#45;&gt;Node9 -->
<g id="edge8_Node000001_Node000009" class="edge">
<title>Node1&#45;&gt;Node9</title>
<g id="a_edge8_Node000001_Node000009"><a xlink:title=" ">
<path fill="none" stroke="#63b8ff" d="M669.69,-55.75C673.86,-47.66 678.59,-38.48 682.68,-30.55"/>
<polygon fill="#63b8ff" stroke="#63b8ff" points="685.74,-32.26 687.2,-21.76 679.51,-29.05 685.74,-32.26"/>
</a>
</g>
</g>
<!-- Node10 -->
<g id="Node000010" class="node">
<title>Node10</title>
<g id="a_Node000010"><a xlink:title=" ">
<polygon fill="#e0e0e0" stroke="#999999" points="829.75,-20 741.75,-20 741.75,0 829.75,0 829.75,-20"/>
<text text-anchor="middle" x="785.75" y="-6.5" font-family="Helvetica,sans-Serif" font-size="10.00">QJsonDocument</text>
</a>
</g>
</g>
<!-- Node1&#45;&gt;Node10 -->
<g id="edge9_Node000001_Node000010" class="edge">
<title>Node1&#45;&gt;Node10</title>
<g id="a_edge9_Node000001_Node000010"><a xlink:title=" ">
<path fill="none" stroke="#63b8ff" d="M699.98,-55.57C718.94,-45.72 740.92,-34.3 757.89,-25.48"/>
<polygon fill="#63b8ff" stroke="#63b8ff" points="759.13,-28.78 766.39,-21.06 755.9,-22.57 759.13,-28.78"/>
</a>
</g>
</g>
<!-- Node11 -->
<g id="Node000011" class="node">
<title>Node11</title>
<g id="a_Node000011"><a xlink:title=" ">
<polygon fill="#e0e0e0" stroke="#999999" points="919.88,-20 847.62,-20 847.62,0 919.88,0 919.88,-20"/>
<text text-anchor="middle" x="883.75" y="-6.5" font-family="Helvetica,sans-Serif" font-size="10.00">QJsonObject</text>
</a>
</g>
</g>
<!-- Node1&#45;&gt;Node11 -->
<g id="edge10_Node000001_Node000011" class="edge">
<title>Node1&#45;&gt;Node11</title>
<g id="a_edge10_Node000001_Node000011"><a xlink:title=" ">
<path fill="none" stroke="#63b8ff" d="M731.8,-55.57C767.8,-45.01 809.97,-32.64 840.74,-23.62"/>
<polygon fill="#63b8ff" stroke="#63b8ff" points="841.46,-27.05 850.07,-20.88 839.49,-20.33 841.46,-27.05"/>
</a>
</g>
</g>
<!-- Node12 -->
<g id="Node000012" class="node">
<title>Node12</title>
<g id="a_Node000012"><a xlink:title=" ">
<polygon fill="#e0e0e0" stroke="#999999" points="1005.25,-20 938.25,-20 938.25,0 1005.25,0 1005.25,-20"/>
<text text-anchor="middle" x="971.75" y="-6.5" font-family="Helvetica,sans-Serif" font-size="10.00">QJsonArray</text>
</a>
</g>
</g>
<!-- Node1&#45;&gt;Node12 -->
<g id="edge11_Node000001_Node000012" class="edge">
<title>Node1&#45;&gt;Node12</title>
<g id="a_edge11_Node000001_Node000012"><a xlink:title=" ">
<path fill="none" stroke="#63b8ff" d="M733.32,-61.28C793.55,-48.58 876.31,-31.12 926.8,-20.48"/>
<polygon fill="#63b8ff" stroke="#63b8ff" points="927.45,-23.92 936.51,-18.43 926,-17.07 927.45,-23.92"/>
</a>
</g>
</g>
<!-- Node13 -->
<g id="Node000013" class="node">
<title>Node13</title>
<g id="a_Node000013"><a xlink:title=" ">
<polygon fill="#e0e0e0" stroke="#999999" points="1074.38,-20 1023.12,-20 1023.12,0 1074.38,0 1074.38,-20"/>
<text text-anchor="middle" x="1048.75" y="-6.5" font-family="Helvetica,sans-Serif" font-size="10.00">QDebug</text>
</a>
</g>
</g>
<!-- Node1&#45;&gt;Node13 -->
<g id="edge12_Node000001_Node000013" class="edge">
<title>Node1&#45;&gt;Node13</title>
<g id="a_edge12_Node000001_Node000013"><a xlink:title=" ">
<path fill="none" stroke="#63b8ff" d="M733.47,-67.25C803.24,-57.65 910.44,-41.61 1011.77,-20.48"/>
<polygon fill="#63b8ff" stroke="#63b8ff" points="1012.28,-23.95 1021.34,-18.46 1010.84,-17.1 1012.28,-23.95"/>
</a>
</g>
</g>
<!-- Node14 -->
<g id="Node000014" class="node">
<title>Node14</title>
<g id="a_Node000014"><a xlink:title=" ">
<polygon fill="#e0e0e0" stroke="#999999" points="1144.75,-20 1092.75,-20 1092.75,0 1144.75,0 1144.75,-20"/>
<text text-anchor="middle" x="1118.75" y="-6.5" font-family="Helvetica,sans-Serif" font-size="10.00">QVector</text>
</a>
</g>
</g>
<!-- Node1&#45;&gt;Node14 -->
<g id="edge13_Node000001_Node000014" class="edge">
<title>Node1&#45;&gt;Node14</title>
<g id="a_edge13_Node000001_Node000014"><a xlink:title=" ">
<path fill="none" stroke="#63b8ff" d="M733.27,-69.71C816.06,-61 953.83,-44.71 1081.33,-20.27"/>
<polygon fill="#63b8ff" stroke="#63b8ff" points="1081.82,-23.75 1090.97,-18.41 1080.48,-16.87 1081.82,-23.75"/>
</a>
</g>
</g>
<!-- Node15 -->
<g id="Node000015" class="node">
<title>Node15</title>
<g id="a_Node000015"><a xlink:title=" ">
<polygon fill="#e0e0e0" stroke="#999999" points="1216.5,-20 1163,-20 1163,0 1216.5,0 1216.5,-20"/>
<text text-anchor="middle" x="1189.75" y="-6.5" font-family="Helvetica,sans-Serif" font-size="10.00">iostream</text>
</a>
</g>
</g>
<!-- Node1&#45;&gt;Node15 -->
<g id="edge14_Node000001_Node000015" class="edge">
<title>Node1&#45;&gt;Node15</title>
<g id="a_edge14_Node000001_Node000015"><a xlink:title=" ">
<path fill="none" stroke="#63b8ff" d="M733.41,-71.45C828.42,-63.72 997.7,-47.66 1151.65,-20.16"/>
<polygon fill="#63b8ff" stroke="#63b8ff" points="1152,-23.66 1161.22,-18.43 1150.75,-16.77 1152,-23.66"/>
</a>
</g>
</g>
</g>
</svg>
