<?xml version="1.0" encoding="UTF-8" standalone="no"?>
<!DOCTYPE svg PUBLIC "-//W3C//DTD SVG 1.1//EN"
 "http://www.w3.org/Graphics/SVG/1.1/DTD/svg11.dtd">
<!-- Generated by graphviz version 11.0.0 (20240428.1522)
 -->
<!-- Title: C:/Users/rbarr/Documents/GitHub/youtubeAudioRetriever/youtubedownloader.h Pages: 1 -->
<svg width="874pt" height="108pt"
 viewBox="0.00 0.00 874.12 108.00" xmlns="http://www.w3.org/2000/svg" xmlns:xlink="http://www.w3.org/1999/xlink">
<g id="graph0" class="graph" transform="scale(1 1) rotate(0) translate(4 104)">
<title>C:/Users/rbarr/Documents/GitHub/youtubeAudioRetriever/youtubedownloader.h</title>
<!-- Node1 -->
<g id="Node000001" class="node">
<title>Node1</title>
<g id="a_Node000001"><a xlink:title="Header of the youtubeDownloader class.">
<polygon fill="#999999" stroke="#666666" points="592.38,-100 443.62,-100 443.62,-56 592.38,-56 592.38,-100"/>
<text text-anchor="start" x="451.62" y="-86.5" font-family="Helvetica,sans-Serif" font-size="10.00">C:/Users/rbarr/Documents</text>
<text text-anchor="start" x="451.62" y="-74.5" font-family="Helvetica,sans-Serif" font-size="10.00">/GitHub/youtubeAudioRetriever</text>
<text text-anchor="middle" x="518" y="-62.5" font-family="Helvetica,sans-Serif" font-size="10.00">/youtubedownloader.h</text>
</a>
</g>
</g>
<!-- Node2 -->
<g id="Node000002" class="node">
<title>Node2</title>
<g id="a_Node000002"><a xlink:title=" ">
<polygon fill="#e0e0e0" stroke="#999999" points="52,-20 0,-20 0,0 52,0 52,-20"/>
<text text-anchor="middle" x="26" y="-6.5" font-family="Helvetica,sans-Serif" font-size="10.00">QObject</text>
</a>
</g>
</g>
<!-- Node1&#45;&gt;Node2 -->
<g id="edge1_Node000001_Node000002" class="edge">
<title>Node1&#45;&gt;Node2</title>
<g id="a_edge1_Node000001_Node000002"><a xlink:title=" ">
<path fill="none" stroke="#63b8ff" d="M443.14,-70.62C354.64,-62.42 202.8,-46.27 63.57,-20.28"/>
<polygon fill="#63b8ff" stroke="#63b8ff" points="64.26,-16.84 53.78,-18.43 62.96,-23.72 64.26,-16.84"/>
</a>
</g>
</g>
<!-- Node3 -->
<g id="Node000003" class="node">
<title>Node3</title>
<g id="a_Node000003"><a xlink:title=" ">
<polygon fill="#e0e0e0" stroke="#999999" points="199.62,-20 70.38,-20 70.38,0 199.62,0 199.62,-20"/>
<text text-anchor="middle" x="135" y="-6.5" font-family="Helvetica,sans-Serif" font-size="10.00">QNetworkAccessManager</text>
</a>
</g>
</g>
<!-- Node1&#45;&gt;Node3 -->
<g id="edge2_Node000001_Node000003" class="edge">
<title>Node1&#45;&gt;Node3</title>
<g id="a_edge2_Node000001_Node000003"><a xlink:title=" ">
<path fill="none" stroke="#63b8ff" d="M443.24,-64.12C372.97,-52.01 268.77,-34.05 201.36,-22.44"/>
<polygon fill="#63b8ff" stroke="#63b8ff" points="201.99,-18.99 191.54,-20.74 200.8,-25.89 201.99,-18.99"/>
</a>
</g>
</g>
<!-- Node4 -->
<g id="Node000004" class="node">
<title>Node4</title>
<g id="a_Node000004"><a xlink:title=" ">
<polygon fill="#e0e0e0" stroke="#999999" points="312.38,-20 217.62,-20 217.62,0 312.38,0 312.38,-20"/>
<text text-anchor="middle" x="265" y="-6.5" font-family="Helvetica,sans-Serif" font-size="10.00">QNetworkRequest</text>
</a>
</g>
</g>
<!-- Node1&#45;&gt;Node4 -->
<g id="edge3_Node000001_Node000004" class="edge">
<title>Node1&#45;&gt;Node4</title>
<g id="a_edge3_Node000001_Node000004"><a xlink:title=" ">
<path fill="none" stroke="#63b8ff" d="M443.46,-57.55C400.93,-46.46 348.91,-32.89 312.03,-23.27"/>
<polygon fill="#63b8ff" stroke="#63b8ff" points="313.12,-19.94 302.56,-20.8 311.35,-26.71 313.12,-19.94"/>
</a>
</g>
</g>
<!-- Node5 -->
<g id="Node000005" class="node">
<title>Node5</title>
<g id="a_Node000005"><a xlink:title=" ">
<polygon fill="#e0e0e0" stroke="#999999" points="413.75,-20 330.25,-20 330.25,0 413.75,0 413.75,-20"/>
<text text-anchor="middle" x="372" y="-6.5" font-family="Helvetica,sans-Serif" font-size="10.00">QNetworkReply</text>
</a>
</g>
</g>
<!-- Node1&#45;&gt;Node5 -->
<g id="edge4_Node000001_Node000005" class="edge">
<title>Node1&#45;&gt;Node5</title>
<g id="a_edge4_Node000001_Node000005"><a xlink:title=" ">
<path fill="none" stroke="#63b8ff" d="M470.6,-55.57C448.5,-45.58 422.82,-33.97 403.21,-25.11"/>
<polygon fill="#63b8ff" stroke="#63b8ff" points="404.65,-21.92 394.1,-20.99 401.77,-28.3 404.65,-21.92"/>
</a>
</g>
</g>
<!-- Node6 -->
<g id="Node000006" class="node">
<title>Node6</title>
<g id="a_Node000006"><a xlink:title=" ">
<polygon fill="#e0e0e0" stroke="#999999" points="470.62,-20 431.38,-20 431.38,0 470.62,0 470.62,-20"/>
<text text-anchor="middle" x="451" y="-6.5" font-family="Helvetica,sans-Serif" font-size="10.00">QFile</text>
</a>
</g>
</g>
<!-- Node1&#45;&gt;Node6 -->
<g id="edge5_Node000001_Node000006" class="edge">
<title>Node1&#45;&gt;Node6</title>
<g id="a_edge5_Node000001_Node000006"><a xlink:title=" ">
<path fill="none" stroke="#63b8ff" d="M496.43,-55.75C487.46,-46.92 477.17,-36.78 468.66,-28.4"/>
<polygon fill="#63b8ff" stroke="#63b8ff" points="471.22,-26.01 461.64,-21.48 466.31,-30.99 471.22,-26.01"/>
</a>
</g>
</g>
<!-- Node7 -->
<g id="Node000007" class="node">
<title>Node7</title>
<g id="a_Node000007"><a xlink:title=" ">
<polygon fill="#e0e0e0" stroke="#999999" points="547.75,-20 488.25,-20 488.25,0 547.75,0 547.75,-20"/>
<text text-anchor="middle" x="518" y="-6.5" font-family="Helvetica,sans-Serif" font-size="10.00">QProcess</text>
</a>
</g>
</g>
<!-- Node1&#45;&gt;Node7 -->
<g id="edge6_Node000001_Node000007" class="edge">
<title>Node1&#45;&gt;Node7</title>
<g id="a_edge6_Node000001_Node000007"><a xlink:title=" ">
<path fill="none" stroke="#63b8ff" d="M518,-55.75C518,-48.13 518,-39.53 518,-31.93"/>
<polygon fill="#63b8ff" stroke="#63b8ff" points="521.5,-31.93 518,-21.93 514.5,-31.93 521.5,-31.93"/>
</a>
</g>
</g>
<!-- Node8 -->
<g id="Node000008" class="node">
<title>Node8</title>
<g id="a_Node000008"><a xlink:title=" ">
<polygon fill="#e0e0e0" stroke="#999999" points="618,-20 566,-20 566,0 618,0 618,-20"/>
<text text-anchor="middle" x="592" y="-6.5" font-family="Helvetica,sans-Serif" font-size="10.00">QQueue</text>
</a>
</g>
</g>
<!-- Node1&#45;&gt;Node8 -->
<g id="edge7_Node000001_Node000008" class="edge">
<title>Node1&#45;&gt;Node8</title>
<g id="a_edge7_Node000001_Node000008"><a xlink:title=" ">
<path fill="none" stroke="#63b8ff" d="M541.82,-55.75C551.94,-46.73 563.57,-36.36 573.08,-27.87"/>
<polygon fill="#63b8ff" stroke="#63b8ff" points="575.18,-30.69 580.31,-21.43 570.52,-25.47 575.18,-30.69"/>
</a>
</g>
</g>
<!-- Node9 -->
<g id="Node000009" class="node">
<title>Node9</title>
<g id="a_Node000009"><a xlink:title=" ">
<polygon fill="#e0e0e0" stroke="#999999" points="671.75,-20 636.25,-20 636.25,0 671.75,0 671.75,-20"/>
<text text-anchor="middle" x="654" y="-6.5" font-family="Helvetica,sans-Serif" font-size="10.00">QDir</text>
</a>
</g>
</g>
<!-- Node1&#45;&gt;Node9 -->
<g id="edge8_Node000001_Node000009" class="edge">
<title>Node1&#45;&gt;Node9</title>
<g id="a_edge8_Node000001_Node000009"><a xlink:title=" ">
<path fill="none" stroke="#63b8ff" d="M562.16,-55.57C582.93,-45.49 607.12,-33.75 625.45,-24.86"/>
<polygon fill="#63b8ff" stroke="#63b8ff" points="626.93,-28.03 634.4,-20.51 623.87,-21.73 626.93,-28.03"/>
</a>
</g>
</g>
<!-- Node10 -->
<g id="Node000010" class="node">
<title>Node10</title>
<g id="a_Node000010"><a xlink:title=" ">
<polygon fill="#e0e0e0" stroke="#999999" points="743.75,-20 690.25,-20 690.25,0 743.75,0 743.75,-20"/>
<text text-anchor="middle" x="717" y="-6.5" font-family="Helvetica,sans-Serif" font-size="10.00">iostream</text>
</a>
</g>
</g>
<!-- Node1&#45;&gt;Node10 -->
<g id="edge9_Node000001_Node000010" class="edge">
<title>Node1&#45;&gt;Node10</title>
<g id="a_edge9_Node000001_Node000010"><a xlink:title=" ">
<path fill="none" stroke="#63b8ff" d="M582.61,-55.57C614.53,-44.99 651.93,-32.58 679.16,-23.55"/>
<polygon fill="#63b8ff" stroke="#63b8ff" points="679.97,-26.97 688.36,-20.5 677.77,-20.32 679.97,-26.97"/>
</a>
</g>
</g>
<!-- Node11 -->
<g id="Node000011" class="node">
<title>Node11</title>
<g id="a_Node000011"><a xlink:title=" ">
<polygon fill="#e0e0e0" stroke="#999999" points="806.25,-20 761.75,-20 761.75,0 806.25,0 806.25,-20"/>
<text text-anchor="middle" x="784" y="-6.5" font-family="Helvetica,sans-Serif" font-size="10.00">cstdlib</text>
</a>
</g>
</g>
<!-- Node1&#45;&gt;Node11 -->
<g id="edge10_Node000001_Node000011" class="edge">
<title>Node1&#45;&gt;Node11</title>
<g id="a_edge10_Node000001_Node000011"><a xlink:title=" ">
<path fill="none" stroke="#63b8ff" d="M592.83,-59.75C636.39,-49.5 692.61,-35.91 750.52,-20.58"/>
<polygon fill="#63b8ff" stroke="#63b8ff" points="751.12,-24.05 759.88,-18.09 749.32,-17.28 751.12,-24.05"/>
</a>
</g>
</g>
<!-- Node12 -->
<g id="Node000012" class="node">
<title>Node12</title>
<g id="a_Node000012"><a xlink:title=" ">
<polygon fill="#e0e0e0" stroke="#999999" points="866.12,-20 823.88,-20 823.88,0 866.12,0 866.12,-20"/>
<text text-anchor="middle" x="845" y="-6.5" font-family="Helvetica,sans-Serif" font-size="10.00">cstdio</text>
</a>
</g>
</g>
<!-- Node1&#45;&gt;Node12 -->
<g id="edge11_Node000001_Node000012" class="edge">
<title>Node1&#45;&gt;Node12</title>
<g id="a_edge11_Node000001_Node000012"><a xlink:title=" ">
<path fill="none" stroke="#63b8ff" d="M592.6,-64.85C650.35,-54.95 732.49,-39.79 812.66,-20.39"/>
<polygon fill="#63b8ff" stroke="#63b8ff" points="813.09,-23.89 821.97,-18.11 811.43,-17.09 813.09,-23.89"/>
</a>
</g>
</g>
</g>
</svg>
