<?xml version="1.0" encoding="UTF-8" standalone="no"?>
<!DOCTYPE svg PUBLIC "-//W3C//DTD SVG 1.1//EN"
 "http://www.w3.org/Graphics/SVG/1.1/DTD/svg11.dtd">
<!-- Generated by graphviz version 11.0.0 (20240428.1522)
 -->
<!-- Title: C:/Users/rbarr/Documents/GitHub/youtubeAudioRetriever/youtubedownloader.cpp Pages: 1 -->
<svg width="874pt" height="164pt"
 viewBox="0.00 0.00 874.12 164.00" xmlns="http://www.w3.org/2000/svg" xmlns:xlink="http://www.w3.org/1999/xlink">
<g id="graph0" class="graph" transform="scale(1 1) rotate(0) translate(4 160)">
<title>C:/Users/rbarr/Documents/GitHub/youtubeAudioRetriever/youtubedownloader.cpp</title>
<!-- Node1 -->
<g id="Node000001" class="node">
<title>Node1</title>
<g id="a_Node000001"><a xlink:title="Implementation of the youtubeDownloader class.">
<polygon fill="#999999" stroke="#666666" points="592.38,-156 443.62,-156 443.62,-112 592.38,-112 592.38,-156"/>
<text text-anchor="start" x="451.62" y="-142.5" font-family="Helvetica,sans-Serif" font-size="10.00">C:/Users/rbarr/Documents</text>
<text text-anchor="start" x="451.62" y="-130.5" font-family="Helvetica,sans-Serif" font-size="10.00">/GitHub/youtubeAudioRetriever</text>
<text text-anchor="middle" x="518" y="-118.5" font-family="Helvetica,sans-Serif" font-size="10.00">/youtubedownloader.cpp</text>
</a>
</g>
</g>
<!-- Node2 -->
<g id="Node000002" class="node">
<title>Node2</title>
<g id="a_Node000002"><a xlink:href="youtubedownloader_8h.html" target="_top" xlink:title="Header of the youtubeDownloader class.">
<polygon fill="white" stroke="#666666" points="572.5,-76 463.5,-76 463.5,-56 572.5,-56 572.5,-76"/>
<text text-anchor="middle" x="518" y="-62.5" font-family="Helvetica,sans-Serif" font-size="10.00">youtubeDownloader.h</text>
</a>
</g>
</g>
<!-- Node1&#45;&gt;Node2 -->
<g id="edge1_Node000001_Node000002" class="edge">
<title>Node1&#45;&gt;Node2</title>
<g id="a_edge1_Node000001_Node000002"><a xlink:title=" ">
<path fill="none" stroke="#63b8ff" d="M518,-111.75C518,-104.13 518,-95.53 518,-87.93"/>
<polygon fill="#63b8ff" stroke="#63b8ff" points="521.5,-87.93 518,-77.93 514.5,-87.93 521.5,-87.93"/>
</a>
</g>
</g>
<!-- Node3 -->
<g id="Node000003" class="node">
<title>Node3</title>
<g id="a_Node000003"><a xlink:title=" ">
<polygon fill="#e0e0e0" stroke="#999999" points="52,-20 0,-20 0,0 52,0 52,-20"/>
<text text-anchor="middle" x="26" y="-6.5" font-family="Helvetica,sans-Serif" font-size="10.00">QObject</text>
</a>
</g>
</g>
<!-- Node2&#45;&gt;Node3 -->
<g id="edge2_Node000002_Node000003" class="edge">
<title>Node2&#45;&gt;Node3</title>
<g id="a_edge2_Node000002_Node000003"><a xlink:title=" ">
<path fill="none" stroke="#63b8ff" d="M463.11,-62.32C379.04,-57.63 213.22,-46.01 63.49,-20.18"/>
<polygon fill="#63b8ff" stroke="#63b8ff" points="64.22,-16.76 53.77,-18.48 63.01,-23.65 64.22,-16.76"/>
</a>
</g>
</g>
<!-- Node4 -->
<g id="Node000004" class="node">
<title>Node4</title>
<g id="a_Node000004"><a xlink:title=" ">
<polygon fill="#e0e0e0" stroke="#999999" points="199.62,-20 70.38,-20 70.38,0 199.62,0 199.62,-20"/>
<text text-anchor="middle" x="135" y="-6.5" font-family="Helvetica,sans-Serif" font-size="10.00">QNetworkAccessManager</text>
</a>
</g>
</g>
<!-- Node2&#45;&gt;Node4 -->
<g id="edge3_Node000002_Node000004" class="edge">
<title>Node2&#45;&gt;Node4</title>
<g id="a_edge3_Node000002_Node000004"><a xlink:title=" ">
<path fill="none" stroke="#63b8ff" d="M463.13,-57.26C397.02,-47.94 285.59,-32.23 211.18,-21.74"/>
<polygon fill="#63b8ff" stroke="#63b8ff" points="211.91,-18.31 201.52,-20.38 210.94,-25.24 211.91,-18.31"/>
</a>
</g>
</g>
<!-- Node5 -->
<g id="Node000005" class="node">
<title>Node5</title>
<g id="a_Node000005"><a xlink:title=" ">
<polygon fill="#e0e0e0" stroke="#999999" points="312.38,-20 217.62,-20 217.62,0 312.38,0 312.38,-20"/>
<text text-anchor="middle" x="265" y="-6.5" font-family="Helvetica,sans-Serif" font-size="10.00">QNetworkRequest</text>
</a>
</g>
</g>
<!-- Node2&#45;&gt;Node5 -->
<g id="edge4_Node000002_Node000005" class="edge">
<title>Node2&#45;&gt;Node5</title>
<g id="a_edge4_Node000002_Node000005"><a xlink:title=" ">
<path fill="none" stroke="#63b8ff" d="M473.64,-55.53C430.96,-46.42 366.3,-32.62 320.29,-22.8"/>
<polygon fill="#63b8ff" stroke="#63b8ff" points="321.3,-19.44 310.79,-20.77 319.84,-26.28 321.3,-19.44"/>
</a>
</g>
</g>
<!-- Node6 -->
<g id="Node000006" class="node">
<title>Node6</title>
<g id="a_Node000006"><a xlink:title=" ">
<polygon fill="#e0e0e0" stroke="#999999" points="413.75,-20 330.25,-20 330.25,0 413.75,0 413.75,-20"/>
<text text-anchor="middle" x="372" y="-6.5" font-family="Helvetica,sans-Serif" font-size="10.00">QNetworkReply</text>
</a>
</g>
</g>
<!-- Node2&#45;&gt;Node6 -->
<g id="edge5_Node000002_Node000006" class="edge">
<title>Node2&#45;&gt;Node6</title>
<g id="a_edge5_Node000002_Node000006"><a xlink:title=" ">
<path fill="none" stroke="#63b8ff" d="M492.57,-55.59C469.26,-46.97 434.5,-34.12 408.28,-24.42"/>
<polygon fill="#63b8ff" stroke="#63b8ff" points="409.64,-21.19 399.05,-21 407.21,-27.76 409.64,-21.19"/>
</a>
</g>
</g>
<!-- Node7 -->
<g id="Node000007" class="node">
<title>Node7</title>
<g id="a_Node000007"><a xlink:title=" ">
<polygon fill="#e0e0e0" stroke="#999999" points="470.62,-20 431.38,-20 431.38,0 470.62,0 470.62,-20"/>
<text text-anchor="middle" x="451" y="-6.5" font-family="Helvetica,sans-Serif" font-size="10.00">QFile</text>
</a>
</g>
</g>
<!-- Node2&#45;&gt;Node7 -->
<g id="edge6_Node000002_Node000007" class="edge">
<title>Node2&#45;&gt;Node7</title>
<g id="a_edge6_Node000002_Node000007"><a xlink:title=" ">
<path fill="none" stroke="#63b8ff" d="M506.33,-55.59C496.72,-47.85 482.87,-36.69 471.43,-27.47"/>
<polygon fill="#63b8ff" stroke="#63b8ff" points="473.7,-24.8 463.72,-21.25 469.3,-30.25 473.7,-24.8"/>
</a>
</g>
</g>
<!-- Node8 -->
<g id="Node000008" class="node">
<title>Node8</title>
<g id="a_Node000008"><a xlink:title=" ">
<polygon fill="#e0e0e0" stroke="#999999" points="547.75,-20 488.25,-20 488.25,0 547.75,0 547.75,-20"/>
<text text-anchor="middle" x="518" y="-6.5" font-family="Helvetica,sans-Serif" font-size="10.00">QProcess</text>
</a>
</g>
</g>
<!-- Node2&#45;&gt;Node8 -->
<g id="edge7_Node000002_Node000008" class="edge">
<title>Node2&#45;&gt;Node8</title>
<g id="a_edge7_Node000002_Node000008"><a xlink:title=" ">
<path fill="none" stroke="#63b8ff" d="M518,-55.59C518,-49.01 518,-39.96 518,-31.73"/>
<polygon fill="#63b8ff" stroke="#63b8ff" points="521.5,-31.81 518,-21.81 514.5,-31.81 521.5,-31.81"/>
</a>
</g>
</g>
<!-- Node9 -->
<g id="Node000009" class="node">
<title>Node9</title>
<g id="a_Node000009"><a xlink:title=" ">
<polygon fill="#e0e0e0" stroke="#999999" points="618,-20 566,-20 566,0 618,0 618,-20"/>
<text text-anchor="middle" x="592" y="-6.5" font-family="Helvetica,sans-Serif" font-size="10.00">QQueue</text>
</a>
</g>
</g>
<!-- Node2&#45;&gt;Node9 -->
<g id="edge8_Node000002_Node000009" class="edge">
<title>Node2&#45;&gt;Node9</title>
<g id="a_edge8_Node000002_Node000009"><a xlink:title=" ">
<path fill="none" stroke="#63b8ff" d="M530.89,-55.59C541.71,-47.7 557.41,-36.24 570.19,-26.92"/>
<polygon fill="#63b8ff" stroke="#63b8ff" points="572.02,-29.91 578.04,-21.19 567.89,-24.26 572.02,-29.91"/>
</a>
</g>
</g>
<!-- Node10 -->
<g id="Node000010" class="node">
<title>Node10</title>
<g id="a_Node000010"><a xlink:title=" ">
<polygon fill="#e0e0e0" stroke="#999999" points="671.75,-20 636.25,-20 636.25,0 671.75,0 671.75,-20"/>
<text text-anchor="middle" x="654" y="-6.5" font-family="Helvetica,sans-Serif" font-size="10.00">QDir</text>
</a>
</g>
</g>
<!-- Node2&#45;&gt;Node10 -->
<g id="edge9_Node000002_Node000010" class="edge">
<title>Node2&#45;&gt;Node10</title>
<g id="a_edge9_Node000002_Node000010"><a xlink:title=" ">
<path fill="none" stroke="#63b8ff" d="M541.69,-55.59C564.92,-46.37 600.37,-32.29 625.21,-22.43"/>
<polygon fill="#63b8ff" stroke="#63b8ff" points="626.39,-25.73 634.39,-18.79 623.81,-19.22 626.39,-25.73"/>
</a>
</g>
</g>
<!-- Node11 -->
<g id="Node000011" class="node">
<title>Node11</title>
<g id="a_Node000011"><a xlink:title=" ">
<polygon fill="#e0e0e0" stroke="#999999" points="743.75,-20 690.25,-20 690.25,0 743.75,0 743.75,-20"/>
<text text-anchor="middle" x="717" y="-6.5" font-family="Helvetica,sans-Serif" font-size="10.00">iostream</text>
</a>
</g>
</g>
<!-- Node2&#45;&gt;Node11 -->
<g id="edge10_Node000002_Node000011" class="edge">
<title>Node2&#45;&gt;Node11</title>
<g id="a_edge10_Node000002_Node000011"><a xlink:title=" ">
<path fill="none" stroke="#63b8ff" d="M552.66,-55.59C587.98,-46.01 642.61,-31.19 679.07,-21.29"/>
<polygon fill="#63b8ff" stroke="#63b8ff" points="679.57,-24.78 688.3,-18.79 677.73,-18.03 679.57,-24.78"/>
</a>
</g>
</g>
<!-- Node12 -->
<g id="Node000012" class="node">
<title>Node12</title>
<g id="a_Node000012"><a xlink:title=" ">
<polygon fill="#e0e0e0" stroke="#999999" points="806.25,-20 761.75,-20 761.75,0 806.25,0 806.25,-20"/>
<text text-anchor="middle" x="784" y="-6.5" font-family="Helvetica,sans-Serif" font-size="10.00">cstdlib</text>
</a>
</g>
</g>
<!-- Node2&#45;&gt;Node12 -->
<g id="edge11_Node000002_Node000012" class="edge">
<title>Node2&#45;&gt;Node12</title>
<g id="a_edge11_Node000002_Node000012"><a xlink:title=" ">
<path fill="none" stroke="#63b8ff" d="M572.92,-55.98C618.22,-48.2 684.38,-36.07 750.36,-20.47"/>
<polygon fill="#63b8ff" stroke="#63b8ff" points="751,-23.92 759.91,-18.18 749.37,-17.11 751,-23.92"/>
</a>
</g>
</g>
<!-- Node13 -->
<g id="Node000013" class="node">
<title>Node13</title>
<g id="a_Node000013"><a xlink:title=" ">
<polygon fill="#e0e0e0" stroke="#999999" points="866.12,-20 823.88,-20 823.88,0 866.12,0 866.12,-20"/>
<text text-anchor="middle" x="845" y="-6.5" font-family="Helvetica,sans-Serif" font-size="10.00">cstdio</text>
</a>
</g>
</g>
<!-- Node2&#45;&gt;Node13 -->
<g id="edge12_Node000002_Node000013" class="edge">
<title>Node2&#45;&gt;Node13</title>
<g id="a_edge12_Node000002_Node000013"><a xlink:title=" ">
<path fill="none" stroke="#63b8ff" d="M572.9,-59.04C630.43,-52.26 723.59,-39.82 812.38,-20.33"/>
<polygon fill="#63b8ff" stroke="#63b8ff" points="812.99,-23.78 821.99,-18.19 811.47,-16.95 812.99,-23.78"/>
</a>
</g>
</g>
</g>
</svg>
