<?xml version="1.0" encoding="UTF-8" standalone="no"?>
<!DOCTYPE svg PUBLIC "-//W3C//DTD SVG 1.1//EN"
 "http://www.w3.org/Graphics/SVG/1.1/DTD/svg11.dtd">
<!-- Generated by graphviz version 11.0.0 (20240428.1522)
 -->
<!-- Title: C:/Users/rbarr/Documents/GitHub/youtubeAudioRetriever/youtubeapi.cpp Pages: 1 -->
<svg width="1225pt" height="164pt"
 viewBox="0.00 0.00 1224.50 164.00" xmlns="http://www.w3.org/2000/svg" xmlns:xlink="http://www.w3.org/1999/xlink">
<g id="graph0" class="graph" transform="scale(1 1) rotate(0) translate(4 160)">
<title>C:/Users/rbarr/Documents/GitHub/youtubeAudioRetriever/youtubeapi.cpp</title>
<!-- Node1 -->
<g id="Node000001" class="node">
<title>Node1</title>
<g id="a_Node000001"><a xlink:title="Implementation of the youtubeApi class.">
<polygon fill="#999999" stroke="#666666" points="799.12,-156 650.38,-156 650.38,-112 799.12,-112 799.12,-156"/>
<text text-anchor="start" x="658.38" y="-142.5" font-family="Helvetica,sans-Serif" font-size="10.00">C:/Users/rbarr/Documents</text>
<text text-anchor="start" x="658.38" y="-130.5" font-family="Helvetica,sans-Serif" font-size="10.00">/GitHub/youtubeAudioRetriever</text>
<text text-anchor="middle" x="724.75" y="-118.5" font-family="Helvetica,sans-Serif" font-size="10.00">/youtubeapi.cpp</text>
</a>
</g>
</g>
<!-- Node2 -->
<g id="Node000002" class="node">
<title>Node2</title>
<g id="a_Node000002"><a xlink:href="youtubeapi_8h.html" target="_top" xlink:title="Header of the youtubeApi class.">
<polygon fill="white" stroke="#666666" points="729.25,-76 656.25,-76 656.25,-56 729.25,-56 729.25,-76"/>
<text text-anchor="middle" x="692.75" y="-62.5" font-family="Helvetica,sans-Serif" font-size="10.00">youtubeApi.h</text>
</a>
</g>
</g>
<!-- Node1&#45;&gt;Node2 -->
<g id="edge1_Node000001_Node000002" class="edge">
<title>Node1&#45;&gt;Node2</title>
<g id="a_edge1_Node000001_Node000002"><a xlink:title=" ">
<path fill="none" stroke="#63b8ff" d="M714.45,-111.75C710.52,-103.66 706.07,-94.48 702.23,-86.55"/>
<polygon fill="#63b8ff" stroke="#63b8ff" points="705.49,-85.25 697.98,-77.78 699.19,-88.31 705.49,-85.25"/>
</a>
</g>
</g>
<!-- Node16 -->
<g id="Node000016" class="node">
<title>Node16</title>
<g id="a_Node000016"><a xlink:title=" ">
<polygon fill="#e0e0e0" stroke="#999999" points="1216.5,-20 1163,-20 1163,0 1216.5,0 1216.5,-20"/>
<text text-anchor="middle" x="1189.75" y="-6.5" font-family="Helvetica,sans-Serif" font-size="10.00">iostream</text>
</a>
</g>
</g>
<!-- Node1&#45;&gt;Node16 -->
<g id="edge16_Node000001_Node000016" class="edge">
<title>Node1&#45;&gt;Node16</title>
<g id="a_edge16_Node000001_Node000016"><a xlink:title=" ">
<path fill="none" stroke="#63b8ff" d="M799.46,-113.4C899.95,-87.03 1074.88,-41.14 1151.72,-20.98"/>
<polygon fill="#63b8ff" stroke="#63b8ff" points="1152.5,-24.39 1161.29,-18.47 1150.73,-17.62 1152.5,-24.39"/>
</a>
</g>
</g>
<!-- Node3 -->
<g id="Node000003" class="node">
<title>Node3</title>
<g id="a_Node000003"><a xlink:title=" ">
<polygon fill="#e0e0e0" stroke="#999999" points="47.5,-20 0,-20 0,0 47.5,0 47.5,-20"/>
<text text-anchor="middle" x="23.75" y="-6.5" font-family="Helvetica,sans-Serif" font-size="10.00">QTimer</text>
</a>
</g>
</g>
<!-- Node2&#45;&gt;Node3 -->
<g id="edge2_Node000002_Node000003" class="edge">
<title>Node2&#45;&gt;Node3</title>
<g id="a_edge2_Node000002_Node000003"><a xlink:title=" ">
<path fill="none" stroke="#63b8ff" d="M655.89,-64.9C559.25,-64.11 290.67,-58.5 58.79,-20"/>
<polygon fill="#63b8ff" stroke="#63b8ff" points="59.71,-16.6 49.27,-18.39 58.55,-23.5 59.71,-16.6"/>
</a>
</g>
</g>
<!-- Node4 -->
<g id="Node000004" class="node">
<title>Node4</title>
<g id="a_Node000004"><a xlink:title=" ">
<polygon fill="#e0e0e0" stroke="#999999" points="117.75,-20 65.75,-20 65.75,0 117.75,0 117.75,-20"/>
<text text-anchor="middle" x="91.75" y="-6.5" font-family="Helvetica,sans-Serif" font-size="10.00">QObject</text>
</a>
</g>
</g>
<!-- Node2&#45;&gt;Node4 -->
<g id="edge3_Node000002_Node000004" class="edge">
<title>Node2&#45;&gt;Node4</title>
<g id="a_edge3_Node000002_Node000004"><a xlink:title=" ">
<path fill="none" stroke="#63b8ff" d="M656.06,-64.27C567.19,-62.03 333.26,-53.37 129.25,-20.13"/>
<polygon fill="#63b8ff" stroke="#63b8ff" points="129.95,-16.7 119.51,-18.52 128.81,-23.61 129.95,-16.7"/>
</a>
</g>
</g>
<!-- Node5 -->
<g id="Node000005" class="node">
<title>Node5</title>
<g id="a_Node000005"><a xlink:title=" ">
<polygon fill="#e0e0e0" stroke="#999999" points="227.62,-20 135.88,-20 135.88,0 227.62,0 227.62,-20"/>
<text text-anchor="middle" x="181.75" y="-6.5" font-family="Helvetica,sans-Serif" font-size="10.00">QCoreApplication</text>
</a>
</g>
</g>
<!-- Node2&#45;&gt;Node5 -->
<g id="edge4_Node000002_Node000005" class="edge">
<title>Node2&#45;&gt;Node5</title>
<g id="a_edge4_Node000002_Node000005"><a xlink:title=" ">
<path fill="none" stroke="#63b8ff" d="M656.01,-62.18C580.15,-56.17 400.45,-41.06 239.03,-20.22"/>
<polygon fill="#63b8ff" stroke="#63b8ff" points="239.8,-16.79 229.43,-18.97 238.9,-23.73 239.8,-16.79"/>
</a>
</g>
</g>
<!-- Node6 -->
<g id="Node000006" class="node">
<title>Node6</title>
<g id="a_Node000006"><a xlink:title=" ">
<polygon fill="#e0e0e0" stroke="#999999" points="375.38,-20 246.12,-20 246.12,0 375.38,0 375.38,-20"/>
<text text-anchor="middle" x="310.75" y="-6.5" font-family="Helvetica,sans-Serif" font-size="10.00">QNetworkAccessManager</text>
</a>
</g>
</g>
<!-- Node2&#45;&gt;Node6 -->
<g id="edge5_Node000002_Node000006" class="edge">
<title>Node2&#45;&gt;Node6</title>
<g id="a_edge5_Node000002_Node000006"><a xlink:title=" ">
<path fill="none" stroke="#63b8ff" d="M655.78,-59.77C593.9,-51.03 468.17,-33.25 386.78,-21.75"/>
<polygon fill="#63b8ff" stroke="#63b8ff" points="387.5,-18.31 377.11,-20.38 386.52,-25.25 387.5,-18.31"/>
</a>
</g>
</g>
<!-- Node7 -->
<g id="Node000007" class="node">
<title>Node7</title>
<g id="a_Node000007"><a xlink:title=" ">
<polygon fill="#e0e0e0" stroke="#999999" points="488.12,-20 393.38,-20 393.38,0 488.12,0 488.12,-20"/>
<text text-anchor="middle" x="440.75" y="-6.5" font-family="Helvetica,sans-Serif" font-size="10.00">QNetworkRequest</text>
</a>
</g>
</g>
<!-- Node2&#45;&gt;Node7 -->
<g id="edge6_Node000002_Node000007" class="edge">
<title>Node2&#45;&gt;Node7</title>
<g id="a_edge6_Node000002_Node000007"><a xlink:title=" ">
<path fill="none" stroke="#63b8ff" d="M655.84,-57.09C613.82,-48.09 544.74,-33.28 496.23,-22.89"/>
<polygon fill="#63b8ff" stroke="#63b8ff" points="496.97,-19.47 486.46,-20.8 495.51,-26.31 496.97,-19.47"/>
</a>
</g>
</g>
<!-- Node8 -->
<g id="Node000008" class="node">
<title>Node8</title>
<g id="a_Node000008"><a xlink:title=" ">
<polygon fill="#e0e0e0" stroke="#999999" points="589.5,-20 506,-20 506,0 589.5,0 589.5,-20"/>
<text text-anchor="middle" x="547.75" y="-6.5" font-family="Helvetica,sans-Serif" font-size="10.00">QNetworkReply</text>
</a>
</g>
</g>
<!-- Node2&#45;&gt;Node8 -->
<g id="edge7_Node000002_Node000008" class="edge">
<title>Node2&#45;&gt;Node8</title>
<g id="a_edge7_Node000002_Node000008"><a xlink:title=" ">
<path fill="none" stroke="#63b8ff" d="M667.49,-55.59C644.35,-46.97 609.83,-34.12 583.79,-24.42"/>
<polygon fill="#63b8ff" stroke="#63b8ff" points="585.22,-21.22 574.62,-21.01 582.77,-27.78 585.22,-21.22"/>
</a>
</g>
</g>
<!-- Node9 -->
<g id="Node000009" class="node">
<title>Node9</title>
<g id="a_Node000009"><a xlink:title=" ">
<polygon fill="#e0e0e0" stroke="#999999" points="643.5,-20 608,-20 608,0 643.5,0 643.5,-20"/>
<text text-anchor="middle" x="625.75" y="-6.5" font-family="Helvetica,sans-Serif" font-size="10.00">QUrl</text>
</a>
</g>
</g>
<!-- Node2&#45;&gt;Node9 -->
<g id="edge8_Node000002_Node000009" class="edge">
<title>Node2&#45;&gt;Node9</title>
<g id="a_edge8_Node000002_Node000009"><a xlink:title=" ">
<path fill="none" stroke="#63b8ff" d="M681.08,-55.59C671.47,-47.85 657.62,-36.69 646.18,-27.47"/>
<polygon fill="#63b8ff" stroke="#63b8ff" points="648.45,-24.8 638.47,-21.25 644.05,-30.25 648.45,-24.8"/>
</a>
</g>
</g>
<!-- Node10 -->
<g id="Node000010" class="node">
<title>Node10</title>
<g id="a_Node000010"><a xlink:title=" ">
<polygon fill="#e0e0e0" stroke="#999999" points="723.62,-20 661.88,-20 661.88,0 723.62,0 723.62,-20"/>
<text text-anchor="middle" x="692.75" y="-6.5" font-family="Helvetica,sans-Serif" font-size="10.00">QUrlQuery</text>
</a>
</g>
</g>
<!-- Node2&#45;&gt;Node10 -->
<g id="edge9_Node000002_Node000010" class="edge">
<title>Node2&#45;&gt;Node10</title>
<g id="a_edge9_Node000002_Node000010"><a xlink:title=" ">
<path fill="none" stroke="#63b8ff" d="M692.75,-55.59C692.75,-49.01 692.75,-39.96 692.75,-31.73"/>
<polygon fill="#63b8ff" stroke="#63b8ff" points="696.25,-31.81 692.75,-21.81 689.25,-31.81 696.25,-31.81"/>
</a>
</g>
</g>
<!-- Node11 -->
<g id="Node000011" class="node">
<title>Node11</title>
<g id="a_Node000011"><a xlink:title=" ">
<polygon fill="#e0e0e0" stroke="#999999" points="829.75,-20 741.75,-20 741.75,0 829.75,0 829.75,-20"/>
<text text-anchor="middle" x="785.75" y="-6.5" font-family="Helvetica,sans-Serif" font-size="10.00">QJsonDocument</text>
</a>
</g>
</g>
<!-- Node2&#45;&gt;Node11 -->
<g id="edge10_Node000002_Node000011" class="edge">
<title>Node2&#45;&gt;Node11</title>
<g id="a_edge10_Node000002_Node000011"><a xlink:title=" ">
<path fill="none" stroke="#63b8ff" d="M708.95,-55.59C723,-47.44 743.58,-35.48 759.91,-26"/>
<polygon fill="#63b8ff" stroke="#63b8ff" points="761.22,-29.29 768.12,-21.24 757.71,-23.23 761.22,-29.29"/>
</a>
</g>
</g>
<!-- Node12 -->
<g id="Node000012" class="node">
<title>Node12</title>
<g id="a_Node000012"><a xlink:title=" ">
<polygon fill="#e0e0e0" stroke="#999999" points="919.88,-20 847.62,-20 847.62,0 919.88,0 919.88,-20"/>
<text text-anchor="middle" x="883.75" y="-6.5" font-family="Helvetica,sans-Serif" font-size="10.00">QJsonObject</text>
</a>
</g>
</g>
<!-- Node2&#45;&gt;Node12 -->
<g id="edge11_Node000002_Node000012" class="edge">
<title>Node2&#45;&gt;Node12</title>
<g id="a_edge11_Node000002_Node000012"><a xlink:title=" ">
<path fill="none" stroke="#63b8ff" d="M726.02,-55.59C757.46,-46.71 804.84,-33.31 839.46,-23.52"/>
<polygon fill="#63b8ff" stroke="#63b8ff" points="840.09,-26.98 848.76,-20.89 838.19,-20.24 840.09,-26.98"/>
</a>
</g>
</g>
<!-- Node13 -->
<g id="Node000013" class="node">
<title>Node13</title>
<g id="a_Node000013"><a xlink:title=" ">
<polygon fill="#e0e0e0" stroke="#999999" points="1005.25,-20 938.25,-20 938.25,0 1005.25,0 1005.25,-20"/>
<text text-anchor="middle" x="971.75" y="-6.5" font-family="Helvetica,sans-Serif" font-size="10.00">QJsonArray</text>
</a>
</g>
</g>
<!-- Node2&#45;&gt;Node13 -->
<g id="edge12_Node000002_Node000013" class="edge">
<title>Node2&#45;&gt;Node13</title>
<g id="a_edge12_Node000002_Node000013"><a xlink:title=" ">
<path fill="none" stroke="#63b8ff" d="M729.58,-58.19C773.87,-49.95 850.76,-35.5 926.76,-20.37"/>
<polygon fill="#63b8ff" stroke="#63b8ff" points="927.36,-23.82 936.48,-18.43 925.98,-16.95 927.36,-23.82"/>
</a>
</g>
</g>
<!-- Node14 -->
<g id="Node000014" class="node">
<title>Node14</title>
<g id="a_Node000014"><a xlink:title=" ">
<polygon fill="#e0e0e0" stroke="#999999" points="1074.38,-20 1023.12,-20 1023.12,0 1074.38,0 1074.38,-20"/>
<text text-anchor="middle" x="1048.75" y="-6.5" font-family="Helvetica,sans-Serif" font-size="10.00">QDebug</text>
</a>
</g>
</g>
<!-- Node2&#45;&gt;Node14 -->
<g id="edge13_Node000002_Node000014" class="edge">
<title>Node2&#45;&gt;Node14</title>
<g id="a_edge13_Node000002_Node000014"><a xlink:title=" ">
<path fill="none" stroke="#63b8ff" d="M729.69,-61.3C787.81,-55.15 904.31,-41.57 1011.8,-20.41"/>
<polygon fill="#63b8ff" stroke="#63b8ff" points="1012.23,-23.89 1021.35,-18.5 1010.86,-17.03 1012.23,-23.89"/>
</a>
</g>
</g>
<!-- Node15 -->
<g id="Node000015" class="node">
<title>Node15</title>
<g id="a_Node000015"><a xlink:title=" ">
<polygon fill="#e0e0e0" stroke="#999999" points="1144.75,-20 1092.75,-20 1092.75,0 1144.75,0 1144.75,-20"/>
<text text-anchor="middle" x="1118.75" y="-6.5" font-family="Helvetica,sans-Serif" font-size="10.00">QVector</text>
</a>
</g>
</g>
<!-- Node2&#45;&gt;Node15 -->
<g id="edge14_Node000002_Node000015" class="edge">
<title>Node2&#45;&gt;Node15</title>
<g id="a_edge14_Node000002_Node000015"><a xlink:title=" ">
<path fill="none" stroke="#63b8ff" d="M729.66,-62.45C797.48,-57.4 946.61,-44.59 1081.53,-20.18"/>
<polygon fill="#63b8ff" stroke="#63b8ff" points="1081.77,-23.7 1090.97,-18.45 1080.51,-16.81 1081.77,-23.7"/>
</a>
</g>
</g>
<!-- Node2&#45;&gt;Node16 -->
<g id="edge15_Node000002_Node000016" class="edge">
<title>Node2&#45;&gt;Node16</title>
<g id="a_edge15_Node000002_Node000016"><a xlink:title=" ">
<path fill="none" stroke="#63b8ff" d="M729.75,-63.25C806.56,-59.21 989.01,-47.55 1151.54,-20.13"/>
<polygon fill="#63b8ff" stroke="#63b8ff" points="1151.96,-23.61 1161.22,-18.47 1150.77,-16.71 1151.96,-23.61"/>
</a>
</g>
</g>
</g>
</svg>
